<?xml version="1.0" encoding="UTF-8"?>
<svg version="1.1" xmlns="http://www.w3.org/2000/svg" width="200" height="200">
<path d="M0 0 C66 0 132 0 200 0 C200 66 200 132 200 200 C134 200 68 200 0 200 C0 134 0 68 0 0 Z " fill="#FDFEFE" transform="translate(0,0)"/>
<path d="M0 0 C1.40025421 -0.01506844 1.40025421 -0.01506844 2.82879639 -0.03044128 C3.85115387 -0.03627228 4.87351135 -0.04210327 5.92684937 -0.04811096 C7.54442139 -0.06278664 7.54442139 -0.06278664 9.19467163 -0.07775879 C12.77123783 -0.10772514 16.34776655 -0.12910341 19.92440796 -0.14796448 C21.14607037 -0.1545363 22.36773277 -0.16110813 23.62641525 -0.1678791 C30.09471224 -0.20048034 36.56299271 -0.22492774 43.03134155 -0.24440002 C48.38185555 -0.26104167 53.73181117 -0.29701178 59.0821228 -0.34693909 C65.54361613 -0.40716608 72.00462041 -0.43787986 78.46638107 -0.44757271 C80.92632102 -0.45612523 83.38624799 -0.47493804 85.84602737 -0.50431633 C89.2954199 -0.54329099 92.74291334 -0.54425649 96.19247437 -0.53639221 C97.20268646 -0.55639282 98.21289856 -0.57639343 99.25372314 -0.59700012 C106.36554678 -0.52446817 111.3382555 1.06280802 116.44784546 6.16062927 C121.24597316 12.70278307 122.17665973 19.02986358 122.07894897 26.9594574 C122.08968193 28.50300148 122.08968193 28.50300148 122.10063171 30.07772827 C122.1174192 33.44957574 122.09817335 36.82007488 122.07675171 40.19187927 C122.07758132 42.55259816 122.08004416 44.91331698 122.08406067 47.27403259 C122.08691189 52.20987944 122.07228279 57.14527082 122.04476929 62.08103943 C122.01068854 68.38902938 122.01671166 74.6962054 122.03543186 81.00423431 C122.04603027 85.87548027 122.0370381 90.74653878 122.02204704 95.61776733 C122.01688566 97.94284508 122.01732204 100.26794256 122.023592 102.59301758 C122.02907841 105.84970287 122.0085583 109.10524619 121.98129272 112.36180115 C121.99108154 113.78509987 121.99108154 113.78509987 122.00106812 115.2371521 C121.90293775 122.17489481 120.71716517 129.41710846 116.00071049 134.8176651 C111.85542071 138.40263581 108.1960802 140.4037587 102.73074341 140.43478394 C101.78600662 140.44475906 100.84126984 140.45473419 99.86790466 140.4650116 C98.32337868 140.46600861 98.32337868 140.46600861 96.74765015 140.46702576 C95.65776291 140.47534927 94.56787567 140.48367279 93.44496155 140.49224854 C89.83651165 140.51637303 86.22824249 140.52512428 82.61972046 140.53172302 C80.11111395 140.54068831 77.60250799 140.54981014 75.09390259 140.55908203 C69.8315049 140.57558182 64.56915134 140.58330681 59.30673218 140.58616638 C53.2376775 140.58979748 47.16912983 140.61966333 41.10022998 140.66157097 C35.24935147 140.70054694 29.39867278 140.71176095 23.54767609 140.71289253 C21.06461084 140.71709497 18.58154516 140.72953005 16.09856415 140.75041008 C12.62046985 140.77732676 9.14376489 140.77249646 5.6656189 140.75999451 C4.64403183 140.7748288 3.62244476 140.78966309 2.56990051 140.8049469 C-4.05321258 140.73730609 -8.41869031 139.43220776 -13.55215454 135.16062927 C-15.39199829 133.06297302 -15.39199829 133.06297302 -16.48965454 131.09812927 C-17.0600647 130.12166443 -17.0600647 130.12166443 -17.64199829 129.12547302 C-19.24775155 125.65897563 -19.67864694 122.48377108 -19.70605469 118.68476868 C-19.71465515 117.79340714 -19.72325562 116.90204559 -19.7321167 115.9836731 C-19.73637665 115.01323563 -19.7406366 114.04279816 -19.74502563 113.04295349 C-19.75320312 112.01480026 -19.76138062 110.98664703 -19.76980591 109.92733765 C-19.79462545 106.52333656 -19.8111686 103.11937714 -19.82559204 99.71531677 C-19.83091572 98.5509824 -19.8362394 97.38664803 -19.8417244 96.18703079 C-19.868443 90.02231251 -19.88782073 83.85761437 -19.9022522 77.69285583 C-19.91558306 72.59859733 -19.94342269 67.50474016 -19.98428345 62.41062927 C-20.03367412 56.25273562 -20.05838148 50.09520561 -20.06547928 43.93712234 C-20.07218011 41.59525204 -20.0873715 39.25338947 -20.11137009 36.91163254 C-20.14312073 33.62555287 -20.14304275 30.34086613 -20.13565063 27.05467224 C-20.15205597 26.09638016 -20.1684613 25.13808807 -20.18536377 24.15075684 C-20.12229881 17.26480422 -18.44065489 11.89180543 -14.55215454 6.16062927 C-10.24448675 2.04192095 -5.93791699 0.05027918 0 0 Z " fill="#0761B0" transform="translate(46.552154541015625,26.839370727539063)"/>
<path d="M0 0 C2.4375 2.125 2.4375 2.125 3.4375 4.125 C3.52323394 6.37620742 3.54462188 8.62999303 3.53515625 10.8828125 C3.5337413 11.54586395 3.53232635 12.20891541 3.53086853 12.89205933 C3.52526754 15.01141863 3.512715 17.13067259 3.5 19.25 C3.49498512 20.68619639 3.49042219 22.12239444 3.48632812 23.55859375 C3.47529782 27.08076345 3.45803259 30.60287145 3.4375 34.125 C2.18428955 34.31292114 2.18428955 34.31292114 0.90576172 34.50463867 C-2.26827094 34.98751034 -5.44002115 35.48305973 -8.61083984 35.98657227 C-9.96945505 36.19980426 -11.32881932 36.40833022 -12.68896484 36.61157227 C-26.85114485 38.73432686 -41.86728407 41.83784438 -52 52.75 C-55.64953438 58.29729226 -56.45703199 62.51088468 -55.5625 69.125 C-53.47310092 75.75114211 -50.49481086 81.44499543 -46.5625 87.125 C-58.50019871 88.3214286 -58.50019871 88.3214286 -63.5625 87.125 C-66.84533413 84.25911747 -68.22056727 81.22176578 -69.5625 77.125 C-69.8925 76.135 -70.2225 75.145 -70.5625 74.125 C-71.53036478 66.76187677 -70.57603111 61.56073471 -66.37890625 55.40625 C-54.14519155 40.04175669 -33.74612368 36.6346078 -15.28125 34.421875 C-14.3840625 34.32390625 -13.486875 34.2259375 -12.5625 34.125 C-32.96531355 34.39605187 -55.80352259 37.91742451 -71.5625 52.125 C-73.35213818 54.33763025 -73.35213818 54.33763025 -74.8125 56.6875 C-75.31265625 57.45191406 -75.8128125 58.21632812 -76.328125 59.00390625 C-79.65792099 64.72567594 -79.55787683 72.27783803 -77.92578125 78.5859375 C-77.21101697 80.46175791 -76.39316137 82.29754498 -75.5625 84.125 C-75.2325 85.115 -74.9025 86.105 -74.5625 87.125 C-81.46717807 87.62513765 -85.99187903 87.44507341 -91.5625 83.125 C-94.34935177 78.61269054 -94.94381582 75.17689391 -94.96655273 69.91381836 C-94.97341599 69.21871658 -94.98027924 68.52361481 -94.98735046 67.80744934 C-95.00554446 65.52636883 -95.00179292 63.24598073 -94.99609375 60.96484375 C-95.00065815 59.37113727 -95.0059645 57.77743275 -95.01197815 56.18373108 C-95.02089392 52.85084004 -95.01850259 49.51818884 -95.00854492 46.18530273 C-94.99703919 41.91911933 -95.01729834 37.65376169 -95.04646206 33.38768673 C-95.06482336 30.09935778 -95.0645321 26.81122693 -95.05882454 23.52285957 C-95.05867141 21.95001629 -95.06470887 20.37715951 -95.07711601 18.80436516 C-95.09202916 16.60464713 -95.08135011 14.40645794 -95.06420898 12.20678711 C-95.06404282 10.95691513 -95.06387665 9.70704315 -95.06370544 8.41929626 C-94.47228228 4.53202179 -93.33303756 2.86709376 -90.5625 0.125 C-82.81353422 -1.94458007 -75.52448608 1.27489239 -68.625 4.5625 C-66.8044125 5.39677624 -64.98283511 6.22889653 -63.16015625 7.05859375 C-62.37133057 7.43040771 -61.58250488 7.80222168 -60.76977539 8.18530273 C-58.70735549 9.06333107 -56.74911614 9.6515189 -54.5625 10.125 C-54.335625 9.50625 -54.10875 8.8875 -53.875 8.25 C-52.13860357 5.4386915 -50.66255115 5.17126383 -47.5625 4.125 C-45.77717642 3.74053552 -43.97974494 3.40944372 -42.17578125 3.125 C-41.15419922 2.96 -40.13261719 2.795 -39.08007812 2.625 C-38.02240234 2.46 -36.96472656 2.295 -35.875 2.125 C-33.78750323 1.79328108 -31.70025987 1.45996334 -29.61328125 1.125 C-28.5979834 0.96209473 -27.58268555 0.79918945 -26.53662109 0.63134766 C-23.71698228 0.15130079 -20.92160124 -0.39626779 -18.12109375 -0.9765625 C-5.54180559 -3.54463938 -5.54180559 -3.54463938 0 0 Z " fill="#F7FBFD" transform="translate(143.5625,55.875)"/>
<path d="M0 0 C2.4375 2.125 2.4375 2.125 3.4375 4.125 C3.52323394 6.37620742 3.54462188 8.62999303 3.53515625 10.8828125 C3.5337413 11.54586395 3.53232635 12.20891541 3.53086853 12.89205933 C3.52526754 15.01141863 3.512715 17.13067259 3.5 19.25 C3.49498512 20.68619639 3.49042219 22.12239444 3.48632812 23.55859375 C3.47529782 27.08076345 3.45803259 30.60287145 3.4375 34.125 C2.18428955 34.31292114 2.18428955 34.31292114 0.90576172 34.50463867 C-2.26827094 34.98751034 -5.44002115 35.48305973 -8.61083984 35.98657227 C-9.96945505 36.19980426 -11.32881932 36.40833022 -12.68896484 36.61157227 C-26.85114485 38.73432686 -41.86728407 41.83784438 -52 52.75 C-55.64953438 58.29729226 -56.45703199 62.51088468 -55.5625 69.125 C-53.47310092 75.75114211 -50.49481086 81.44499543 -46.5625 87.125 C-58.50019871 88.3214286 -58.50019871 88.3214286 -63.5625 87.125 C-66.84533413 84.25911747 -68.22056727 81.22176578 -69.5625 77.125 C-69.8925 76.135 -70.2225 75.145 -70.5625 74.125 C-71.53036478 66.76187677 -70.57603111 61.56073471 -66.37890625 55.40625 C-53.53311628 39.27304282 -31.8374906 36.34903738 -12.5625 34.125 C-22.9575 34.62 -22.9575 34.62 -33.5625 35.125 C-33.953125 32.16276042 -34.34375 29.20052083 -34.734375 26.23828125 C-35.72887698 22.49951672 -36.77000153 20.81009468 -39.5625 18.125 C-42.21936069 16.60501696 -44.97370492 15.44851958 -47.8125 14.3125 C-48.55757812 14.00119141 -49.30265625 13.68988281 -50.0703125 13.36914062 C-51.89584582 12.60850174 -53.72850215 11.86499681 -55.5625 11.125 C-53.22206995 6.44413991 -53.22206995 6.44413991 -50.28588867 5.0234375 C-47.56808917 4.12684385 -45.0009572 3.57046549 -42.17578125 3.125 C-41.15419922 2.96 -40.13261719 2.795 -39.08007812 2.625 C-38.02240234 2.46 -36.96472656 2.295 -35.875 2.125 C-33.78750323 1.79328108 -31.70025987 1.45996334 -29.61328125 1.125 C-28.09033447 0.88064209 -28.09033447 0.88064209 -26.53662109 0.63134766 C-23.71698228 0.15130079 -20.92160124 -0.39626779 -18.12109375 -0.9765625 C-5.54180559 -3.54463938 -5.54180559 -3.54463938 0 0 Z " fill="#03D9F8" transform="translate(143.5625,55.875)"/>
<path d="M0 0 C0 16.83 0 33.66 0 51 C-14.34736924 49.97518791 -24.66208072 48.76737888 -36 40 C-36.86238281 39.41605469 -36.86238281 39.41605469 -37.7421875 38.8203125 C-42.30949663 35.5254875 -44.60931759 31.35412729 -46 26 C-46.27350679 20.73499437 -45.3733053 16.18289857 -42 12 C-41.34 12 -40.68 12 -40 12 C-40 11.34 -40 10.68 -40 10 C-26.53414877 3.1161965 -15.43186081 0 0 0 Z " fill="#03DAFA" transform="translate(147,92)"/>
<path d="M0 0 C0 0.33 0 0.66 0 1 C-0.74459473 1.12004395 -1.48918945 1.24008789 -2.25634766 1.36376953 C-28.02602645 4.83520793 -28.02602645 4.83520793 -49 19 C-52.56793532 24.01740904 -52.90140195 29.04073153 -52 35 C-49.8974031 41.62484897 -46.93439156 47.31698997 -43 53 C-54.93769871 54.1964286 -54.93769871 54.1964286 -60 53 C-63.28283413 50.13411747 -64.65806727 47.09676578 -66 43 C-66.495 41.515 -66.495 41.515 -67 40 C-67.96786478 32.63687677 -67.01353111 27.43573471 -62.81640625 21.28125 C-50.78473781 6.17050942 -30.59377132 2.50483573 -12.375 0.3046875 C-8.211755 -0.07116101 -4.17578866 -0.1465189 0 0 Z " fill="#F2FAFC" transform="translate(140,90)"/>
<path d="M0 0 C0 0.33 0 0.66 0 1 C-1.19206055 1.14248169 -1.19206055 1.14248169 -2.40820312 1.2878418 C-34.44730986 4.38666354 -34.44730986 4.38666354 -61 21 C-65.91108541 27.35332822 -66.9388386 33.09711812 -66 41 C-65.49466797 43.45022339 -64.84064092 45.6356974 -64 48 C-64.99 48.495 -64.99 48.495 -66 49 C-68.625 48.0625 -68.625 48.0625 -71 47 C-70.67 47.598125 -70.34 48.19625 -70 48.8125 C-69 51 -69 51 -69 54 C-69.66 54 -70.32 54 -71 54 C-75.65219083 46.19632505 -76.85163167 40.20235332 -76 31 C-75.08136132 27.99445389 -73.76475305 25.58869405 -72 23 C-71.319375 21.989375 -70.63875 20.97875 -69.9375 19.9375 C-58.09624665 6.65219136 -36.113286 1.2268712 -18.9140625 0.08203125 C-12.60920963 -0.0954512 -6.30635982 -0.0712136 0 0 Z " fill="#0A60AE" transform="translate(140,89)"/>
<path d="M0 0 C14.18663412 -0.14045975 28.37315967 -0.24571247 42.56034756 -0.31087303 C49.14846901 -0.34215108 55.73612247 -0.3845616 62.32397461 -0.45263672 C68.68472438 -0.51795184 75.04502475 -0.55373256 81.40608406 -0.56926346 C83.82975397 -0.58032773 86.2534 -0.60193398 88.67687798 -0.63438034 C92.07865933 -0.67810264 95.47859694 -0.68392715 98.88061523 -0.68115234 C99.87683899 -0.702724 100.87306274 -0.72429565 101.8994751 -0.746521 C108.97621755 -0.68428934 113.9143148 0.93705524 119 6 C123.79881408 12.541158 124.72880597 18.86990792 124.63110352 26.79882812 C124.63825882 27.82785751 124.64541412 28.8568869 124.65278625 29.917099 C124.66957374 33.28894646 124.65032789 36.65944561 124.62890625 40.03125 C124.62973586 42.39196888 124.6321987 44.75268771 124.63621521 47.11340332 C124.63906643 52.04925017 124.62443733 56.98464155 124.59692383 61.92041016 C124.56284308 68.22840011 124.5688662 74.53557612 124.5875864 80.84360504 C124.59818481 85.71485099 124.58919265 90.58590951 124.57420158 95.45713806 C124.56904021 97.7822158 124.56947658 100.10731329 124.57574654 102.43238831 C124.58123296 105.6890736 124.56071284 108.94461692 124.53344727 112.20117188 C124.53997314 113.15003769 124.54649902 114.0989035 124.55322266 115.07652283 C124.46162735 121.55224211 123.34517467 127.363797 120 133 C117.86145878 134.78203583 117.86145878 134.78203583 116 136 C116.33 134.68 116.66 133.36 117 132 C117.66 132 118.32 132 119 132 C120.05104512 127.54668828 120.32828534 123.10245499 120.55419922 118.5480957 C120.59630964 117.71618619 120.63842007 116.88427668 120.68180656 116.02715778 C121.14280199 106.09672621 121.14472426 96.1695159 121.1328125 86.23046875 C121.13348835 84.20933521 121.13446071 82.18820175 121.13571167 80.16706848 C121.13717102 75.97457082 121.13508866 71.78209473 121.13037109 67.58959961 C121.12462652 62.2244788 121.12799355 56.85940752 121.13394356 51.49428844 C121.13755625 47.33958054 121.13640814 43.18488442 121.13381577 39.03017616 C121.13315094 37.05067247 121.13395932 35.07116769 121.13629532 33.09166527 C121.13883874 30.33606491 121.13495955 27.5805455 121.12939453 24.82495117 C121.13243088 23.61168152 121.13243088 23.61168152 121.13552856 22.37390137 C121.11970507 18.13780999 120.8384006 14.17304421 120 10 C118.68 10.33 117.36 10.66 116 11 C116.33 9.35 116.66 7.7 117 6 C115.865625 5.71125 114.73125 5.4225 113.5625 5.125 C111.7990625 4.568125 111.7990625 4.568125 110 4 C109.505 3.01 109.505 3.01 109 2 C73.03 1.67 37.06 1.34 0 1 C0 0.67 0 0.34 0 0 Z " fill="#3471AB" transform="translate(44,27)"/>
<path d="M0 0 C0 0.33 0 0.66 0 1 C-1.19206055 1.14248169 -1.19206055 1.14248169 -2.40820312 1.2878418 C-36.22938831 5.38040241 -36.22938831 5.38040241 -64 24 C-64.33 22.68 -64.66 21.36 -65 20 C-65.66 20 -66.32 20 -67 20 C-67.33 21.32 -67.66 22.64 -68 24 C-68.99 24 -69.98 24 -71 24 C-71.33 24.99 -71.66 25.98 -72 27 C-72.66 26.67 -73.32 26.34 -74 26 C-64.07446381 11.06088239 -47.91580957 5.38437378 -31.03125 1.78125 C-20.73524122 -0.28177217 -10.45256805 -0.11803402 0 0 Z " fill="#1C6BA8" transform="translate(140,89)"/>
<path d="M0 0 C0 9.9 0 19.8 0 30 C-5.55001337 26.66999198 -7.9120165 23.88465903 -9.609375 17.82421875 C-10.63846822 11.86576902 -9.1953324 8.03299137 -6 3 C-5.34 3 -4.68 3 -4 3 C-4 2.34 -4 1.68 -4 1 C-2 0 -2 0 0 0 Z " fill="#09D4F8" transform="translate(111,101)"/>
<path d="M0 0 C1 1 1 1 1.12025452 3.09437561 C1.11803391 4.01592941 1.11581329 4.93748322 1.11352539 5.88696289 C1.11344986 6.92796646 1.11337433 7.96897003 1.11329651 9.04151917 C1.10813522 10.1737944 1.10297394 11.30606964 1.09765625 12.47265625 C1.0962413 13.62543564 1.09482635 14.77821503 1.09336853 15.96592712 C1.08775005 19.66481064 1.07519442 23.36363464 1.0625 27.0625 C1.05748738 29.56315017 1.05292406 32.06380129 1.04882812 34.56445312 C1.03777462 40.70965588 1.02101852 46.85482369 1 53 C0.67 53 0.34 53 0 53 C0 36.17 0 19.34 0 2 C-14.08533314 3.55480514 -14.08533314 3.55480514 -27.125 7.05078125 C-31.02851531 8.33957774 -34.97192082 9.20443343 -39 10 C-40.010625 10.20625 -41.02125 10.4125 -42.0625 10.625 C-42.701875 10.74875 -43.34125 10.8725 -44 11 C-44 10.34 -44 9.68 -44 9 C-30.40555893 3.62594751 -14.78046103 -0.92377881 0 0 Z " fill="#0A82BA" transform="translate(147,90)"/>
<path d="M0 0 C1.32 0.33 2.64 0.66 4 1 C3.67515625 1.55042969 3.3503125 2.10085937 3.015625 2.66796875 C0.26536742 8.98298326 1.76589314 16.71657447 4 23 C3.34 23.33 2.68 23.66 2 24 C-0.625 23.0625 -0.625 23.0625 -3 22 C-2.67 22.598125 -2.34 23.19625 -2 23.8125 C-1 26 -1 26 -1 29 C-1.66 29 -2.32 29 -3 29 C-7.06153846 22.72307692 -7.06153846 22.72307692 -6.75 19.0625 C-6.37875 18.0415625 -6.37875 18.0415625 -6 17 C-5.01 17 -4.02 17 -3 17 C-1.45357192 11.3297637 -0.51482919 5.852795 0 0 Z " fill="#1162AA" transform="translate(72,114)"/>
<path d="M0 0 C2 2 2 2 2.22705078 4.98095703 C2.21657715 6.22731934 2.20610352 7.47368164 2.1953125 8.7578125 C2.1924826 9.42086395 2.18965271 10.08391541 2.18673706 10.76705933 C2.17553435 12.88655583 2.15043051 15.00563104 2.125 17.125 C2.11497028 18.56119182 2.10584441 19.99739025 2.09765625 21.43359375 C2.075595 24.95586628 2.04106494 28.47789203 2 32 C-1.465 32.495 -1.465 32.495 -5 33 C-5 32.34 -5 31.68 -5 31 C-14.9 31.66 -24.8 32.32 -35 33 C-35.33 29.04 -35.66 25.08 -36 21 C-35.34 21.33 -34.68 21.66 -34 22 C-33.5859375 24.06640625 -33.5859375 24.06640625 -33.375 26.5625 C-33.30023438 27.38878906 -33.22546875 28.21507813 -33.1484375 29.06640625 C-33.09945312 29.70449219 -33.05046875 30.34257813 -33 31 C-32.44957031 30.9278125 -31.89914063 30.855625 -31.33203125 30.78125 C-24.53084717 30.02204806 -17.77331013 29.88892813 -10.9375 29.875 C-9.52658081 29.86823242 -9.52658081 29.86823242 -8.0871582 29.86132812 C-7.20116943 29.86326172 -6.31518066 29.86519531 -5.40234375 29.8671875 C-4.60304443 29.86831543 -3.80374512 29.86944336 -2.98022461 29.87060547 C-1 30 -1 30 1 31 C0.67 20.77 0.34 10.54 0 0 Z " fill="#14CEF8" transform="translate(145,58)"/>
<path d="M0 0 C1.1446875 0.01353516 1.1446875 0.01353516 2.3125 0.02734375 C2.869375 0.03894531 3.42625 0.05054687 4 0.0625 C4 0.3925 4 0.7225 4 1.0625 C3.22922119 1.19825439 2.45844238 1.33400879 1.66430664 1.47387695 C-1.87090612 2.10060872 -5.40417359 2.73772304 -8.9375 3.375 C-10.75604492 3.69500977 -10.75604492 3.69500977 -12.61132812 4.02148438 C-19.31209512 5.2381548 -25.60602998 6.71045709 -32 9.0625 C-32 8.4025 -32 7.7425 -32 7.0625 C-33.0725 7.578125 -34.145 8.09375 -35.25 8.625 C-38.25254899 10.06853317 -39.83246499 10.12068094 -43 9.0625 C-29.42154522 3.69476709 -14.72239849 -0.23003748 0 0 Z " fill="#CAE9F5" transform="translate(136,89.9375)"/>
<path d="M0 0 C2.5 0.25 2.5 0.25 4.5 2.25 C4.8125 5.25 4.8125 5.25 4.5 8.25 C1.5 10.25 1.5 10.25 -1.125 9.9375 C-3.5 9.25 -3.5 9.25 -4.5 8.25 C-4.6875 5.3125 -4.6875 5.3125 -4.5 2.25 C-2.5 0.25 -2.5 0.25 0 0 Z " fill="#89BAD7" transform="translate(156.5,127.75)"/>
<path d="M0 0 C0.33 0.99 0.66 1.98 1 3 C1.66 3 2.32 3 3 3 C3.33 4.98 3.66 6.96 4 9 C1.41025267 11.48615744 0.15467174 11.98895202 -3.5 12.25 C-6.18551758 12.05817732 -8.45409836 11.81468853 -11 11 C-11.125 4.375 -11.125 4.375 -10 1 C-6.78548731 -0.60725635 -3.56387464 -0.05748185 0 0 Z M-8 3 C-8.33333333 6 -8.33333333 6 -8 9 C-7.34 9.66 -6.68 10.32 -6 11 C-2.17435335 10.81242938 -2.17435335 10.81242938 1 9 C1.25005386 6.04182893 1.25005386 6.04182893 1 3 C-0.82703227 0.7508092 -0.82703227 0.7508092 -3.5 0.75 C-6.17296773 0.7508092 -6.17296773 0.7508092 -8 3 Z " fill="#1E66A8" transform="translate(160,127)"/>
<path d="M0 0 C0 9.9 0 19.8 0 30 C-1.32 29.34 -2.64 28.68 -4 28 C-3.34 27.67 -2.68 27.34 -2 27 C-2 18.75 -2 10.5 -2 2 C-2.66 1.67 -3.32 1.34 -4 1 C-2 0 -2 0 0 0 Z " fill="#03BCE3" transform="translate(111,101)"/>
<path d="M0 0 C0 0.33 0 0.66 0 1 C-4.07986536 1.72937637 -8.16417919 2.42982741 -12.25 3.125 C-13.40886719 3.33253906 -14.56773438 3.54007812 -15.76171875 3.75390625 C-16.87675781 3.94082031 -17.99179688 4.12773438 -19.140625 4.3203125 C-20.68024902 4.58739014 -20.68024902 4.58739014 -22.25097656 4.85986328 C-25.20614408 5.01050859 -26.53813346 4.57085627 -29 3 C-25.85591216 2.48860403 -22.70951427 1.99303964 -19.5625 1.5 C-18.68400391 1.35691406 -17.80550781 1.21382813 -16.90039062 1.06640625 C-11.19328375 0.18190998 -5.77505428 -0.14099827 0 0 Z " fill="#9CD4F1" transform="translate(140,90)"/>
<path d="M0 0 C-0.66 2.97 -1.32 5.94 -2 9 C-3.32 8.67 -4.64 8.34 -6 8 C-6 7.34 -6 6.68 -6 6 C-6.99 6.99 -7.98 7.98 -9 9 C-9.66 8.67 -10.32 8.34 -11 8 C-9.54712339 6.66072279 -8.08752741 5.32873153 -6.625 4 C-5.81289062 3.2575 -5.00078125 2.515 -4.1640625 1.75 C-2 0 -2 0 0 0 Z " fill="#1A66AA" transform="translate(101,101)"/>
<path d="M0 0 C0.66 0.33 1.32 0.66 2 1 C1.67 1.99 1.34 2.98 1 4 C0.61258706 10.24365499 0.41473097 16.18314467 3 22 C2.34 22 1.68 22 1 22 C-1.69276878 15.94127026 -2.87058822 10.64812826 -2 4 C-0.98046875 1.703125 -0.98046875 1.703125 0 0 Z " fill="#2869A3" transform="translate(89,111)"/>
<path d="M0 0 C0 0.99 0 1.98 0 3 C-0.33 2.67 -0.66 2.34 -1 2 C-3.45809998 1.7499227 -3.45809998 1.7499227 -6 2 C-8.76223278 4.76223278 -8.57856291 7.20706617 -9 11 C-9.66 11 -10.32 11 -11 11 C-11.125 4.375 -11.125 4.375 -10 1 C-6.78548731 -0.60725635 -3.56387464 -0.05748185 0 0 Z " fill="#1160A4" transform="translate(160,127)"/>
<path d="M0 0 C0.99 0.495 0.99 0.495 2 1 C2.59772099 3.9829661 2.74337815 6.96330805 3 10 C6.96 10 10.92 10 15 10 C15 10.33 15 10.66 15 11 C10.38 11.33 5.76 11.66 1 12 C0.67 8.04 0.34 4.08 0 0 Z " fill="#17B7DE" transform="translate(109,79)"/>
<path d="M0 0 C7.44283101 -0.8119452 11.18448392 1.47682083 17 6 C16.34 6.66 15.68 7.32 15 8 C15 7.34 15 6.68 15 6 C13.865625 5.71125 12.73125 5.4225 11.5625 5.125 C10.386875 4.75375 9.21125 4.3825 8 4 C7.67 3.34 7.34 2.68 7 2 C4.67843403 1.59270772 2.3431213 1.25561323 0 1 C0 0.67 0 0.34 0 0 Z " fill="#326EA7" transform="translate(146,27)"/>
<path d="M0 0 C-0.33 0.66 -0.66 1.32 -1 2 C-2.9609375 2.5625 -2.9609375 2.5625 -5.375 3 C-8.67525619 3.60200113 -10.11408973 4.07605982 -13 6 C-13 4.68 -13 3.36 -13 2 C-11.39935157 1.46845258 -9.79431126 0.95011647 -8.1875 0.4375 C-7.29417969 0.14746094 -6.40085937 -0.14257812 -5.48046875 -0.44140625 C-3 -1 -3 -1 0 0 Z " fill="#1360A2" transform="translate(63,53)"/>
<path d="M0 0 C0 0.66 0 1.32 0 2 C-0.61875 2.0825 -1.2375 2.165 -1.875 2.25 C-4.16150356 2.78035516 -4.16150356 2.78035516 -4.9375 4.875 C-6.35844081 7.71688163 -8.24119033 8.54799491 -11 10 C-9.7978674 5.32503988 -7.45867887 3.53616659 -3.65625 0.91796875 C-2 0 -2 0 0 0 Z " fill="#2768A2" transform="translate(41,28)"/>
<path d="M0 0 C1.04449911 3.13349732 0.93423645 3.98968256 0 7 C0.66 7.33 1.32 7.66 2 8 C-2.75 7.25 -2.75 7.25 -5 5 C-3.35 3.35 -1.7 1.7 0 0 Z " fill="#1FBAE3" transform="translate(93,61)"/>
<path d="M0 0 C1.32 0.33 2.64 0.66 4 1 C3.68289062 1.54140625 3.36578125 2.0828125 3.0390625 2.640625 C1.81692026 5.4157149 1.59056564 7.73208098 1.375 10.75 C1.30023438 11.73484375 1.22546875 12.7196875 1.1484375 13.734375 C1.09945312 14.48203125 1.05046875 15.2296875 1 16 C0.67 16 0.34 16 0 16 C0 10.72 0 5.44 0 0 Z " fill="#1F639F" transform="translate(72,114)"/>
<path d="M0 0 C0 1.98 0 3.96 0 6 C-1.98 6 -3.96 6 -6 6 C-3.84615385 0 -3.84615385 0 0 0 Z " fill="#10C9F2" transform="translate(109,103)"/>
<path d="M0 0 C1.140625 1.73828125 1.140625 1.73828125 2 4 C1.171875 6.10546875 1.171875 6.10546875 -0.25 8.1875 C-0.93835938 9.22970703 -0.93835938 9.22970703 -1.640625 10.29296875 C-3 12 -3 12 -5 13 C-4.67 11.68 -4.34 10.36 -4 9 C-3.34 9 -2.68 9 -2 9 C-1.7834375 7.88625 -1.7834375 7.88625 -1.5625 6.75 C-1.09812508 4.47972261 -0.58136431 2.24240521 0 0 Z " fill="#2363A1" transform="translate(165,150)"/>
<path d="M0 0 C0 0.66 0 1.32 0 2 C-1.60379341 2.05416188 -3.20811406 2.09286638 -4.8125 2.125 C-5.70582031 2.14820313 -6.59914063 2.17140625 -7.51953125 2.1953125 C-10 2 -10 2 -13 0 C-11.20909747 -0.19466332 -9.41723495 -0.38051213 -7.625 -0.5625 C-6.12839844 -0.71912109 -6.12839844 -0.71912109 -4.6015625 -0.87890625 C-2 -1 -2 -1 0 0 Z " fill="#BADEF5" transform="translate(69,141)"/>
<path d="M0 0 C0.90105469 0.00902344 1.80210938 0.01804687 2.73046875 0.02734375 C3.41753906 0.03894531 4.10460937 0.05054687 4.8125 0.0625 C0.77957255 2.2969598 -2.63717434 2.60746743 -7.1875 3.0625 C-7.5175 2.4025 -7.8475 1.7425 -8.1875 1.0625 C-5.17259443 0.05753148 -3.14568308 -0.04085303 0 0 Z " fill="#0E639E" transform="translate(115.1875,90.9375)"/>
<path d="M0 0 C2.79872437 2.52788007 4.45773019 4.20411134 5 8 C4.01 8.495 4.01 8.495 3 9 C2.67 7.02 2.34 5.04 2 3 C0.68 3.33 -0.64 3.66 -2 4 C-2 3.01 -2 2.02 -2 1 C-1.34 0.67 -0.68 0.34 0 0 Z " fill="#1A63A4" transform="translate(162,34)"/>
<path d="M0 0 C1.9453125 -0.29296875 1.9453125 -0.29296875 4.125 -0.1875 C5.40375 -0.125625 6.6825 -0.06375 8 0 C4.99382731 3.00617269 2.17618402 2.59585316 -2 3 C-1.34 2.01 -0.68 1.02 0 0 Z " fill="#DCF5FB" transform="translate(107,94)"/>
<path d="M0 0 C0 0.66 0 1.32 0 2 C-3.08809695 3.76462683 -4.23312136 4 -8 4 C-8 3.34 -8 2.68 -8 2 C-5.09399739 0.74335022 -3.20395416 0 0 0 Z " fill="#1F66A7" transform="translate(111,97)"/>
<path d="M0 0 C1.875 0.1875 1.875 0.1875 4 1 C5.25 3.5625 5.25 3.5625 6 6 C3.5625 5.25 3.5625 5.25 1 4 C0.1875 1.875 0.1875 1.875 0 0 Z " fill="#0FCFF7" transform="translate(111,129)"/>
<path d="M0 0 C0.66 0.33 1.32 0.66 2 1 C-1.465 3.97 -1.465 3.97 -5 7 C-5.66 6.67 -6.32 6.34 -7 6 C-4.69 4.02 -2.38 2.04 0 0 Z " fill="#DAEFFA" transform="translate(87,102)"/>
</svg>
