<?xml version="1.0" encoding="UTF-8"?>
<svg version="1.1" xmlns="http://www.w3.org/2000/svg" width="474" height="349">
<path d="M0 0 C156.42 0 312.84 0 474 0 C474 115.17 474 230.34 474 349 C317.58 349 161.16 349 0 349 C0 233.83 0 118.66 0 0 Z " fill="#FEFEFE" transform="translate(0,0)"/>
<path d="M0 0 C0.91652344 -0.00386719 1.83304688 -0.00773437 2.77734375 -0.01171875 C4.20240234 0.00568359 4.20240234 0.00568359 5.65625 0.0234375 C6.60628906 0.01183594 7.55632812 0.00023437 8.53515625 -0.01171875 C9.45167969 -0.00785156 10.36820313 -0.00398438 11.3125 0 C12.56256836 0.00507568 12.56256836 0.00507568 13.83789062 0.01025391 C16.632717 0.47821662 18.04083368 1.55992407 20.15625 3.3984375 C19.84375 6.7734375 19.84375 6.7734375 19.15625 10.3984375 C16.15625 12.3984375 16.15625 12.3984375 12.15625 12.3984375 C12.15625 15.6984375 12.15625 18.9984375 12.15625 22.3984375 C13.90615234 22.56472656 13.90615234 22.56472656 15.69140625 22.734375 C26.38933103 24.08544405 36.31043257 29.13951192 44.15625 36.3984375 C44.85234375 37.00429687 45.5484375 37.61015625 46.265625 38.234375 C56.61848021 47.76989953 62.5855352 62.10362052 63.359375 76.0625 C63.54365069 91.63379554 59.84021988 103.37248269 51.15625 116.3984375 C50.49625 116.3984375 49.83625 116.3984375 49.15625 116.3984375 C48.76759766 117.28402344 48.76759766 117.28402344 48.37109375 118.1875 C43.08655104 127.80502788 30.11810936 133.1903811 20.15625 136.3984375 C6.07348227 139.32127608 -8.28961465 137.85166153 -21.34375 131.9609375 C-35.8237991 125.7845248 -51.06784554 124.90717855 -66.63867188 124.81347656 C-67.79044922 124.79897461 -68.94222656 124.78447266 -70.12890625 124.76953125 C-71.15894775 124.76880615 -72.18898926 124.76808105 -73.25024414 124.76733398 C-75.84375 124.3984375 -75.84375 124.3984375 -77.67749023 123.06274414 C-79.49468625 120.46952136 -79.22767521 118.46983919 -78.84375 115.3984375 C-77.64648438 113.73632812 -77.64648438 113.73632812 -75.84375 112.3984375 C-73.43945312 112.01367188 -73.43945312 112.01367188 -70.625 111.9921875 C-69.61050781 111.97027344 -68.59601563 111.94835937 -67.55078125 111.92578125 C-65.41276042 111.90755208 -63.27473958 111.88932292 -61.13671875 111.87109375 C-60.12222656 111.84917969 -59.10773438 111.82726562 -58.0625 111.8046875 C-56.6693457 111.79405273 -56.6693457 111.79405273 -55.24804688 111.78320312 C-52.42641617 111.33165053 -51.53050112 110.66551667 -49.84375 108.3984375 C-49.4830869 106.34480144 -49.4830869 106.34480144 -49.65625 104.2109375 C-49.718125 102.9528125 -49.78 101.6946875 -49.84375 100.3984375 C-54.62624814 99.18709913 -59.32989535 99.21149888 -64.23046875 99.15234375 C-66.07357299 99.11943505 -67.91667183 99.08622295 -69.75976562 99.05273438 C-72.65662276 99.00514791 -75.55345352 98.96063853 -78.45043945 98.92163086 C-81.2523331 98.88206747 -84.05380517 98.83052164 -86.85546875 98.77734375 C-87.72628586 98.7689296 -88.59710297 98.76051544 -89.49430847 98.75184631 C-95.61698609 98.62520141 -95.61698609 98.62520141 -97.84375 96.3984375 C-98.21875 92.9609375 -98.21875 92.9609375 -97.84375 89.3984375 C-95.56891654 87.02243957 -94.15970007 86.43949434 -90.8828125 86.01367188 C-89.75617188 86.00658203 -88.62953125 85.99949219 -87.46875 85.9921875 C-85.62023437 85.95931641 -85.62023437 85.95931641 -83.734375 85.92578125 C-81.140625 85.90755208 -78.546875 85.88932292 -75.953125 85.87109375 C-74.10460937 85.83822266 -74.10460937 85.83822266 -72.21875 85.8046875 C-71.09210938 85.79759766 -69.96546875 85.79050781 -68.8046875 85.78320312 C-65.54710254 85.35988898 -64.14840141 84.70585892 -61.84375 82.3984375 C-61.27690404 78.71393876 -62.13840992 76.61129822 -63.84375 73.3984375 C-64.66172058 73.40731995 -65.47969116 73.41620239 -66.32244873 73.425354 C-74.03242905 73.50551435 -81.74220723 73.56640889 -89.45249557 73.60568619 C-93.41642793 73.62655802 -97.38001587 73.65486749 -101.34375 73.70019531 C-105.16927727 73.74366869 -108.99447334 73.76757765 -112.82022858 73.77794647 C-114.27950505 73.78533528 -115.73876346 73.79976415 -117.19789886 73.82135773 C-119.242682 73.85041374 -121.2860982 73.85439291 -123.33105469 73.85253906 C-125.07645538 73.86586273 -125.07645538 73.86586273 -126.8571167 73.87945557 C-130.47949754 73.29604594 -131.64922547 72.28570003 -133.84375 69.3984375 C-134.28125 66.8359375 -134.28125 66.8359375 -133.84375 64.3984375 C-131.96514167 61.8936264 -130.88273126 61.41143125 -127.84375 60.3984375 C-125.27430764 60.27879412 -122.72987619 60.21318126 -120.15942383 60.19311523 C-118.98833824 60.17826584 -118.98833824 60.17826584 -117.79359436 60.16311646 C-115.21268752 60.13152573 -112.63176227 60.10675362 -110.05078125 60.08203125 C-108.26144431 60.06145963 -106.4721122 60.0404631 -104.68278503 60.01905823 C-99.97282834 59.96385908 -95.26282794 59.91444027 -90.55279541 59.86621094 C-85.74674591 59.81598019 -80.94075988 59.76030233 -76.13476562 59.70507812 C-66.70448131 59.59752292 -57.27414188 59.49607206 -47.84375 59.3984375 C-47.84375 56.4284375 -47.84375 53.4584375 -47.84375 50.3984375 C-51.93959156 48.35051672 -53.7916806 48.12830169 -58.25390625 48.0546875 C-59.49076172 48.02503906 -60.72761719 47.99539062 -62.00195312 47.96484375 C-64.60872283 47.9205065 -67.21549367 47.87623586 -69.82226562 47.83203125 C-71.05783203 47.80238281 -72.29339844 47.77273437 -73.56640625 47.7421875 C-75.26422241 47.71415039 -75.26422241 47.71415039 -76.99633789 47.68554688 C-79.84375 47.3984375 -79.84375 47.3984375 -82.84375 45.3984375 C-83.2421875 43.5234375 -83.2421875 43.5234375 -83.21875 41.3984375 C-83.23035156 40.3465625 -83.23035156 40.3465625 -83.2421875 39.2734375 C-82.84375 37.3984375 -82.84375 37.3984375 -79.84375 35.3984375 C-76.81958008 35.12719727 -76.81958008 35.12719727 -73.11328125 35.08984375 C-71.7471434 35.06739377 -70.38101399 35.04442506 -69.01489258 35.02099609 C-68.30265533 35.01187195 -67.59041809 35.0027478 -66.8565979 34.99334717 C-49.6963138 34.74058754 -34.64592081 32.70493315 -18.37231445 26.91162109 C-12.57216275 24.85895724 -6.90256882 23.48772425 -0.84375 22.3984375 C-0.84375 19.0984375 -0.84375 15.7984375 -0.84375 12.3984375 C-1.7925 12.2953125 -2.74125 12.1921875 -3.71875 12.0859375 C-6.84375 11.3984375 -6.84375 11.3984375 -8.84375 8.3984375 C-9.21875 5.8984375 -9.21875 5.8984375 -8.84375 3.3984375 C-5.95580628 0.66046361 -3.93372923 0.01597222 0 0 Z " fill="#A63E75" transform="translate(263.84375,59.6015625)"/>
<path d="M0 0 C2.4375 0.4375 2.4375 0.4375 4.4375 2.4375 C4.66623816 4.80595334 4.79698767 7.18430606 4.875 9.5625 C5.32417148 18.59833297 7.54095729 26.35861711 13.4375 33.4375 C21.77739289 40.11956428 29.92998568 41.34371575 40.4375 40.4375 C47.66418892 38.8066121 52.95916386 35.32127142 57.4375 29.4375 C62.24494299 21.72800301 62.63661012 14.36710437 63.15625 5.421875 C63.4375 2.4375 63.4375 2.4375 64.4375 1.4375 C67.375 1.25 67.375 1.25 70.4375 1.4375 C73.67538704 4.67538704 73.64922542 8.93476664 73.875 13.375 C73.72784482 24.29391401 68.21222273 33.74693835 60.7265625 41.3828125 C51.8546741 49.34631642 42.71558714 52.02451515 30.8671875 51.71875 C18.92472438 50.73941362 9.91851168 45.05015645 2.23046875 36.01171875 C-2.8368642 28.73639759 -5.67899554 20.32241968 -5.8125 11.5 C-5.83828125 10.48035156 -5.8640625 9.46070313 -5.890625 8.41015625 C-5.42857256 4.22418121 -4.44416002 0.75875903 0 0 Z " fill="#FAF2F9" transform="translate(237.5625,132.5625)"/>
<path d="M0 0 C6.7711075 6.15555227 6.7711075 6.15555227 7.3359375 10.70703125 C7.41473485 16.97142077 7.45915591 21.17929091 3 26 C-1.16214095 29.74592685 -4.74180698 32.28288634 -10.4375 32.3125 C-11.17871094 32.32925781 -11.91992188 32.34601563 -12.68359375 32.36328125 C-15 32 -15 32 -20 29 C-20.33 33.29 -20.66 37.58 -21 42 C-23.475 42.495 -23.475 42.495 -26 43 C-27.92010626 41.07989374 -27.21044788 37.54731449 -27.23828125 34.9296875 C-27.246353 34.21523468 -27.25442474 33.50078186 -27.26274109 32.76467896 C-27.27660205 31.24646442 -27.28731517 29.72821845 -27.29516602 28.20996094 C-27.31227744 25.9049797 -27.35612853 23.6014713 -27.40039062 21.296875 C-27.41052652 19.82032303 -27.41903981 18.34375887 -27.42578125 16.8671875 C-27.44328934 16.18461884 -27.46079742 15.50205017 -27.47883606 14.79879761 C-27.45460433 9.3576273 -25.99737733 6.37872432 -23 2 C-15.77840038 -3.7170997 -8.11038774 -5.11307053 0 0 Z " fill="#9B486F" transform="translate(332,228)"/>
<path d="M0 0 C2.76156457 2.39820081 3.83706059 3.51118178 5 7 C5.17812624 9.6928496 5.08727698 12.29441368 5 15 C4 16 4 16 1.59155273 16.11352539 C0.54942627 16.10828857 -0.4927002 16.10305176 -1.56640625 16.09765625 C-2.69111328 16.09443359 -3.81582031 16.09121094 -4.97460938 16.08789062 C-6.15861328 16.07951172 -7.34261719 16.07113281 -8.5625 16.0625 C-9.75037109 16.05798828 -10.93824219 16.05347656 -12.16210938 16.04882812 C-15.10812226 16.03699675 -18.05403681 16.02051287 -21 16 C-18.1204024 20.57748509 -18.1204024 20.57748509 -14 24 C-11.80670728 24.10060334 -11.80670728 24.10060334 -9.5 23.75 C-8.7265625 23.66234375 -7.953125 23.5746875 -7.15625 23.484375 C-4.7201558 23.07260497 -4.7201558 23.07260497 -2 21 C0.1875 21.375 0.1875 21.375 2 22 C1.8125 24.3125 1.8125 24.3125 1 27 C-3.31904009 30.18245059 -7.42342081 31.42308956 -12.80859375 31.34375 C-18.08904258 30.5154443 -21.82780686 27.17219314 -25.5 23.5 C-27.83242387 18.05767764 -27.73499211 12.82796776 -27 7 C-24.70001197 2.14446971 -21.21532265 -1.71387094 -16.125 -3.75 C-9.43609456 -4.53693005 -5.39670986 -3.9236625 0 0 Z " fill="#9C4B70" transform="translate(248,229)"/>
<path d="M0 0 C2.9375 2 2.9375 2 5 4 C7.6905528 2.77992056 7.6905528 2.77992056 10 1 C19.88054808 -0.21393981 19.88054808 -0.21393981 24.09375 2.19921875 C27.69043712 5.69893636 28.8903998 8.61189423 29.11352539 13.47363281 C29.10828857 14.37436523 29.10305176 15.27509766 29.09765625 16.203125 C29.09443359 17.1828125 29.09121094 18.1625 29.08789062 19.171875 C29.07532227 20.69554687 29.07532227 20.69554687 29.0625 22.25 C29.05798828 23.28125 29.05347656 24.3125 29.04882812 25.375 C29.03706088 27.91672573 29.02062011 30.45833319 29 33 C26.625 33.625 26.625 33.625 24 34 C21.43624877 31.43624877 21.73806289 30.4030721 21.69140625 26.84375 C21.66626953 25.82152344 21.64113281 24.79929688 21.61523438 23.74609375 C21.5800791 21.58209117 21.54882879 19.41802162 21.52148438 17.25390625 C21.49505859 16.23167969 21.46863281 15.20945313 21.44140625 14.15625 C21.42795166 13.21587891 21.41449707 12.27550781 21.40063477 11.30664062 C21.20232056 10.16485352 21.20232056 10.16485352 21 9 C17.77208445 6.8480563 16.71599191 6.79913557 13 7 C12.67 7.66 12.34 8.32 12 9 C11.34 9 10.68 9 10 9 C9.67 16.92 9.34 24.84 9 33 C6.525 33.495 6.525 33.495 4 34 C2.36386856 32.36386856 2.79491039 30.4513615 2.71875 28.1953125 C2.68136719 27.21949219 2.64398438 26.24367187 2.60546875 25.23828125 C2.57066406 24.21089844 2.53585938 23.18351562 2.5 22.125 C2.43110493 20.10662955 2.35835689 18.08838592 2.28125 16.0703125 C2.25095703 15.17070801 2.22066406 14.27110352 2.18945312 13.34423828 C2.08149941 10.84653157 2.08149941 10.84653157 1 8 C-2.30567489 7.14612895 -2.30567489 7.14612895 -6 7 C-8.68603727 9.01243788 -9.84159715 10.25559163 -10.54589844 13.56542969 C-10.5668457 14.50805664 -10.58779297 15.45068359 -10.609375 16.421875 C-10.64160156 17.44667969 -10.67382812 18.47148437 -10.70703125 19.52734375 C-10.72830078 21.12255859 -10.72830078 21.12255859 -10.75 22.75 C-10.77964844 23.82894531 -10.80929688 24.90789062 -10.83984375 26.01953125 C-10.91046936 28.67976244 -10.96320196 31.33912102 -11 34 C-12.66611905 34.042721 -14.33382885 34.04063832 -16 34 C-18.46576563 31.53423437 -17.23398821 25.06043814 -17.25 21.75 C-17.270625 20.69941406 -17.29125 19.64882812 -17.3125 18.56640625 C-17.31765625 17.54933594 -17.3228125 16.53226563 -17.328125 15.484375 C-17.3374707 14.55334961 -17.34681641 13.62232422 -17.35644531 12.66308594 C-16.68770556 7.6667755 -13.70717794 4.24378069 -10 1 C-6.39427296 -0.20190901 -3.7897565 -0.32670315 0 0 Z " fill="#9E4B74" transform="translate(186,225)"/>
<path d="M0 0 C1.32 0 2.64 0 4 0 C5.40445656 2.80891312 5.14564244 5.18935252 5.17578125 8.328125 C5.19962891 9.60300781 5.22347656 10.87789062 5.24804688 12.19140625 C5.28305086 14.21674157 5.31244335 16.24148992 5.32592773 18.26708984 C5.34150598 20.22515583 5.38339466 22.18295585 5.42578125 24.140625 C5.44036377 25.31141602 5.45494629 26.48220703 5.4699707 27.68847656 C6.25441387 32.58953002 8.48821729 35.77423024 12.3125 38.875 C15.83891192 40.35117243 18.20389 40.46618895 22 40 C25.99951707 37.88704758 28.4209608 36.24731888 30 32 C30.23030907 29.61649515 30.35519654 27.22200729 30.4140625 24.828125 C30.43342865 24.1457074 30.4527948 23.46328979 30.4727478 22.76019287 C30.53231098 20.59025392 30.57883446 18.42026123 30.625 16.25 C30.66320131 14.77471703 30.7022543 13.29945585 30.7421875 11.82421875 C30.83799235 8.21634582 30.92210916 4.60830917 31 1 C33.375 0.375 33.375 0.375 36 0 C39.21233421 3.21233421 38.29575026 6.95412749 38.32226562 11.33398438 C38.31904297 12.56439453 38.31582031 13.79480469 38.3125 15.0625 C38.32861328 16.26583984 38.34472656 17.46917969 38.36132812 18.70898438 C38.36562586 26.57813342 38.21173717 33.97524987 33.1328125 40.33984375 C27.45510922 44.85770492 23.53402118 47.47674829 15.98046875 47.25 C10.35689744 46.54012118 5.88963471 42.88963471 2 39 C-1.57122869 32.09282356 -1.39749828 25.25102035 -1.28125 17.6340332 C-1.24970512 15.54295258 -1.24023229 13.45262465 -1.234375 11.36132812 C-1.15428046 1.15428046 -1.15428046 1.15428046 0 0 Z " fill="#954471" transform="translate(260,213)"/>
<path d="M0 0 C0.74330566 -0.00428513 1.48661133 -0.00857025 2.25244141 -0.01298523 C3.82258079 -0.01872326 5.39274675 -0.01923266 6.96289062 -0.01489258 C9.36634549 -0.01173014 11.7685721 -0.03520492 14.171875 -0.06054688 C15.69791511 -0.06281968 17.22395854 -0.06352345 18.75 -0.0625 C19.46881348 -0.07170975 20.18762695 -0.08091949 20.92822266 -0.09040833 C25.89560067 -0.04428289 25.89560067 -0.04428289 28.32226562 1.70239258 C29.62267824 3.67683632 29.83928648 4.94368877 29.875 7.30078125 C29.9059375 7.98140625 29.936875 8.66203125 29.96875 9.36328125 C29.375 11.30078125 29.375 11.30078125 27.29711914 12.89257812 C22.05345111 15.4195626 16.26146329 14.81943622 10.5456543 14.80175781 C8.31494284 14.80078232 6.08763993 14.84250251 3.85742188 14.88671875 C2.43490297 14.8919242 1.01237217 14.89461397 -0.41015625 14.89453125 C-1.69801025 14.90162109 -2.98586426 14.90871094 -4.31274414 14.91601562 C-7.625 14.30078125 -7.625 14.30078125 -10.07983398 11.99414062 C-11.625 9.30078125 -11.625 9.30078125 -11.5625 5.61328125 C-9.80716176 -0.58891387 -5.53721953 -0.00702082 0 0 Z " fill="#FAF4F9" transform="translate(273.625,110.69921875)"/>
<path d="M0 0 C1.43352212 0.00015908 2.86704998 0.00585132 4.30053711 0.01586914 C5.43041298 0.01799156 5.43041298 0.01799156 6.58311462 0.02015686 C8.99807646 0.02577163 11.41294687 0.03832656 13.82788086 0.05102539 C15.46134307 0.05603849 17.09480672 0.06060173 18.72827148 0.06469727 C22.74067671 0.07574585 26.75301326 0.09302033 30.76538086 0.11352539 C31.14756853 1.76967196 31.47933188 3.43809563 31.76538086 5.11352539 C31.43538086 5.44352539 31.10538086 5.77352539 30.76538086 6.11352539 C26.14538086 6.11352539 21.52538086 6.11352539 16.76538086 6.11352539 C16.76538086 18.98352539 16.76538086 31.85352539 16.76538086 45.11352539 C14.29038086 45.60852539 14.29038086 45.60852539 11.76538086 46.11352539 C10.76538086 45.11352539 10.76538086 45.11352539 10.65185547 41.41992188 C10.65201462 39.77481247 10.65771097 38.12969808 10.66772461 36.48461914 C10.66913956 35.62038834 10.6705545 34.75615753 10.67201233 33.86573792 C10.67762847 31.09413247 10.69018367 28.32260659 10.70288086 25.55102539 C10.70789378 23.6766776 10.71245705 21.80232854 10.71655273 19.92797852 C10.72760314 15.32312995 10.74487856 10.71834118 10.76538086 6.11352539 C6.14538086 6.11352539 1.52538086 6.11352539 -3.23461914 6.11352539 C-3.56461914 4.46352539 -3.89461914 2.81352539 -4.23461914 1.11352539 C-3.23461914 0.11352539 -3.23461914 0.11352539 0 0 Z " fill="#9D4173" transform="translate(120.234619140625,212.886474609375)"/>
<path d="M0 0 C2.81992717 1.82120296 4.50345478 3.00690956 6 6 C6.39431433 10.73177192 6.45299639 13.09400722 4.3125 17.375 C1.82873403 20.19441002 0.65122129 21.23579089 -3 22 C-8.30379889 21.81057861 -11.19058032 20.69737793 -15 17 C-16.74221711 13.51556578 -16.58675154 9.80112955 -16 6 C-12.04772537 -1.13769001 -7.38903992 -1.68454796 0 0 Z " fill="#FCF7FD" transform="translate(327,232)"/>
<path d="M0 0 C0 0.99 0 1.98 0 3 C2.97 3 5.94 3 9 3 C9 3.33 9 3.66 9 4 C8.09507812 4.12955078 8.09507812 4.12955078 7.171875 4.26171875 C1.56622759 5.24722773 -0.61085789 6.23009629 -4 11 C-5.32 11 -6.64 11 -8 11 C-8 13.97 -8 16.94 -8 20 C-7.67 19.34 -7.34 18.68 -7 18 C-6.34 18 -5.68 18 -5 18 C-3.65668346 19.99330842 -2.32405988 21.99384866 -1 24 C2.28078549 26.18719033 2.80590051 26.21791927 6.5 25.75 C7.2734375 25.66234375 8.046875 25.5746875 8.84375 25.484375 C11.2798442 25.07260497 11.2798442 25.07260497 14 23 C16.1875 23.375 16.1875 23.375 18 24 C17.8125 26.3125 17.8125 26.3125 17 29 C12.68095991 32.18245059 8.57657919 33.42308956 3.19140625 33.34375 C-2.08904258 32.5154443 -5.82780686 29.17219314 -9.5 25.5 C-11.94986434 19.78364986 -12.42667495 12.85784553 -10.234375 6.9296875 C-7.70087137 2.92836034 -4.79412619 0 0 0 Z " fill="#9C4873" transform="translate(232,227)"/>
<path d="M0 0 C2.66615667 2.66615667 1.23508732 10.41722815 1.25 14 C1.270625 15.20785156 1.29125 16.41570312 1.3125 17.66015625 C1.34623457 25.41067413 1.34226989 32.984982 -3.82421875 39.19140625 C-4.43910156 39.64386719 -5.05398438 40.09632813 -5.6875 40.5625 C-6.31011719 41.03816406 -6.93273437 41.51382813 -7.57421875 42.00390625 C-8.27998047 42.49697266 -8.27998047 42.49697266 -9 43 C-9.99 42.01 -10.98 41.02 -12 40 C-11.34 40 -10.68 40 -10 40 C-6.5531895 31.72950296 -6.45222336 23.74409248 -6.3125 14.9375 C-6.27926379 13.48499645 -6.24476849 12.03252114 -6.20898438 10.58007812 C-6.12480821 7.05359261 -6.05766349 3.52703038 -6 0 C-3.49749232 -1.25125384 -2.59701335 -0.83774624 0 0 Z " fill="#9E4E76" transform="translate(297,214)"/>
<path d="M0 0 C1.051875 0.495 1.051875 0.495 2.125 1 C2.125 0.34 2.125 -0.32 2.125 -1 C3.56155854 -1.08131463 4.9994483 -1.13933559 6.4375 -1.1875 C7.63826172 -1.23970703 7.63826172 -1.23970703 8.86328125 -1.29296875 C11.125 -1 11.125 -1 12.91796875 0.32421875 C14.125 2 14.125 2 14.125 5 C10.495 5 6.865 5 3.125 5 C3.785 6.32 4.445 7.64 5.125 9 C7.765 8.67 10.405 8.34 13.125 8 C12.795 8.99 12.465 9.98 12.125 11 C7.74097961 12.89309972 3.8548008 13.70446472 -0.8125 12.5 C-3.00794651 11.86737277 -3.00794651 11.86737277 -5.875 12.125 C-8.875 12 -8.875 12 -11.25 10.9375 C-12.875 9 -12.875 9 -13.375 5.5 C-12.875 2 -12.875 2 -11.25 0.0625 C-7.23413801 -1.73406984 -4.1028449 -1.42707649 0 0 Z " fill="#FCF0F7" transform="translate(295.875,279)"/>
<path d="M0 0 C1.4540625 0.0309375 1.4540625 0.0309375 2.9375 0.0625 C2.96215392 4.60147705 2.98033789 9.14041543 2.99243164 13.67944336 C2.9974714 15.22469766 3.0043032 16.76994716 3.01293945 18.31518555 C3.02502076 20.53175029 3.03073173 22.74825218 3.03515625 24.96484375 C3.04031754 25.6596434 3.04547882 26.35444305 3.05079651 27.07029724 C3.05099277 28.7347933 2.99939129 30.39915499 2.9375 32.0625 C1.9375 33.0625 1.9375 33.0625 -1.125 33.125 C-2.094375 33.104375 -3.06375 33.08375 -4.0625 33.0625 C-4.08715392 28.52352295 -4.10533789 23.98458457 -4.11743164 19.44555664 C-4.1224714 17.90030234 -4.1293032 16.35505284 -4.13793945 14.80981445 C-4.15002076 12.59324971 -4.15573173 10.37674782 -4.16015625 8.16015625 C-4.16531754 7.4653566 -4.17047882 6.77055695 -4.17579651 6.05470276 C-4.17599277 4.3902067 -4.12439129 2.72584501 -4.0625 1.0625 C-3.0625 0.0625 -3.0625 0.0625 0 0 Z " fill="#A46387" transform="translate(160.0625,225.9375)"/>
<path d="M0 0 C1.85625 -0.01160156 1.85625 -0.01160156 3.75 -0.0234375 C7 0.375 7 0.375 8.9140625 1.7109375 C10.61880737 4.32324438 10.37897001 6.34323995 10 9.375 C8.9140625 11.0390625 8.9140625 11.0390625 7 12.375 C3.75 12.7734375 3.75 12.7734375 0 12.75 C-1.2375 12.75773437 -2.475 12.76546875 -3.75 12.7734375 C-7 12.375 -7 12.375 -8.9140625 11.0390625 C-10.61880737 8.42675562 -10.37897001 6.40676005 -10 3.375 C-7.48288537 -0.48216127 -4.30628653 -0.02691429 0 0 Z " fill="#EE7DA5" transform="translate(153,94.625)"/>
<path d="M0 0 C8.15384615 0 8.15384615 0 13 3 C14.56935594 6.13871188 14.35201103 8.53855822 14 12 C12.0625 14.9375 12.0625 14.9375 9 17 C5.87335485 17.40782328 3.17557846 17.23698347 0 17 C0 11.39 0 5.78 0 0 Z " fill="#FCF3FA" transform="translate(139,274)"/>
<path d="M0 0 C0.66 0 1.32 0 2 0 C1.67 2.97 1.34 5.94 1 9 C0.34 9 -0.32 9 -1 9 C-1.33 9.99 -1.66 10.98 -2 12 C-2.70125 11.938125 -3.4025 11.87625 -4.125 11.8125 C-7.1208995 11.8173983 -7.1208995 11.8173983 -9.9375 13.5 C-13.42228042 15.20683123 -15.17771444 15.63704759 -19 15 C-21.45641777 13.55706928 -22.95997101 12.08747152 -25 10 C-25.33 8.68 -25.66 7.36 -26 6 C-13.625 5.505 -13.625 5.505 -1 5 C-0.67 3.35 -0.34 1.7 0 0 Z " fill="#FAEFF8" transform="translate(253,239)"/>
<path d="M0 0 C0.99 0.66 1.98 1.32 3 2 C3 2.66 3 3.32 3 4 C3.66 4 4.32 4 5 4 C5.268125 3.360625 5.53625 2.72125 5.8125 2.0625 C7 0 7 0 10 -1 C10 -0.34 10 0.32 10 1 C9.01 1.495 9.01 1.495 8 2 C7.5316735 4.58605332 7.5316735 4.58605332 7.375 7.5625 C7.30023438 8.57441406 7.22546875 9.58632813 7.1484375 10.62890625 C7.09945313 11.41136719 7.05046875 12.19382812 7 13 C6.01 12.67 5.02 12.34 4 12 C3.67 11.34 3.34 10.68 3 10 C2.46375 10.33 1.9275 10.66 1.375 11 C-1.62934544 12.26498755 -3.76767442 12.34386442 -7 12 C-8.875 10.9375 -8.875 10.9375 -10 9 C-10.36841966 5.56141649 -10.58367385 3.09868019 -8.9375 0 C-5.80370228 -1.61744399 -3.33824757 -0.77495033 0 0 Z " fill="#F4D9E7" transform="translate(254,279)"/>
<path d="M0 0 C1.02802734 0.00966797 2.05605469 0.01933594 3.11523438 0.02929688 C4.72301758 0.06700195 4.72301758 0.06700195 6.36328125 0.10546875 C7.44673828 0.11900391 8.53019531 0.13253906 9.64648438 0.14648438 C12.3234153 0.18186232 14.99934963 0.23122686 17.67578125 0.29296875 C17.67578125 0.95296875 17.67578125 1.61296875 17.67578125 2.29296875 C6.78578125 2.78796875 6.78578125 2.78796875 -4.32421875 3.29296875 C-5.44548656 7.09085573 -5.44548656 7.09085573 -5.32421875 10.29296875 C-4.66526611 10.28773193 -4.00631348 10.28249512 -3.32739258 10.27709961 C31.52361297 10.03670588 31.52361297 10.03670588 42.67578125 13.29296875 C43.17078125 14.28296875 43.17078125 14.28296875 43.67578125 15.29296875 C45.57111467 15.75819938 45.57111467 15.75819938 47.73828125 15.91796875 C49.03765625 16.04171875 50.33703125 16.16546875 51.67578125 16.29296875 C51.01578125 17.28296875 50.35578125 18.27296875 49.67578125 19.29296875 C49.06734375 19.11121094 48.45890625 18.92945313 47.83203125 18.7421875 C33.0684899 14.50852491 19.43231579 12.89611022 4.08422852 12.75927734 C2.32550415 12.72954834 2.32550415 12.72954834 0.53125 12.69921875 C-0.52425049 12.69212891 -1.57975098 12.68503906 -2.66723633 12.67773438 C-5.32421875 12.29296875 -5.32421875 12.29296875 -7.16674805 10.95507812 C-8.97289539 8.3614795 -8.70745144 6.3588303 -8.32421875 3.29296875 C-5.95768484 -0.02464296 -3.93372657 -0.06519989 0 0 Z " fill="#95446E" transform="translate(193.32421875,171.70703125)"/>
<path d="M0 0 C7 0 7 0 10 2 C9.67 2.66 9.34 3.32 9 4 C9.433125 4.37125 9.86625 4.7425 10.3125 5.125 C12.46152985 7.51281095 13.64757984 10.1019568 15 13 C15.99 10.69 16.98 8.38 18 6 C18.66 6.33 19.32 6.66 20 7 C18.35 10.3 16.7 13.6 15 17 C12.327664 13.43688534 11.22736029 11.15414253 10 7 C9.01 7 8.02 7 7 7 C7 10.63 7 14.26 7 18 C4.69 18 2.38 18 0 18 C0 12.06 0 6.12 0 0 Z " fill="#DBBAC9" transform="translate(170,273)"/>
<path d="M0 0 C3 0.5625 3 0.5625 5.4375 2.6875 C7 5.5625 7 5.5625 7.0625 8.6875 C6 11.5625 6 11.5625 3.75 13.5 C0.55083641 14.73604048 -0.80462419 14.73974372 -4 13.5625 C-5.8125 12.375 -5.8125 12.375 -7 10.5625 C-7.54068562 6.93218224 -7.46379841 5.24035921 -5.375 2.1875 C-3 0.5625 -3 0.5625 0 0 Z " fill="#F9ECF8" transform="translate(247,110.4375)"/>
<path d="M0 0 C0.99 0.495 0.99 0.495 2 1 C2 1.99 2 2.98 2 4 C4.7781904 5.3890952 7.08534745 5.16331551 10.19384766 5.20532227 C12.14564438 5.2352401 12.14564438 5.2352401 14.13687134 5.26576233 C15.5626005 5.28274673 16.98833093 5.29962553 18.4140625 5.31640625 C19.86852613 5.33697521 21.32298377 5.35797166 22.7774353 5.37937927 C26.60786088 5.43460604 30.43834045 5.4840126 34.26885986 5.53222656 C38.1766847 5.5824372 42.084431 5.63812554 45.9921875 5.69335938 C53.66139185 5.80094833 61.33066145 5.90239162 69 6 C69.495 6.99 69.495 6.99 70 8 C61.3161375 8.06947174 52.63237046 8.1227967 43.94829082 8.15543652 C39.91602967 8.17110102 35.88395847 8.1923533 31.85180664 8.22631836 C27.9614608 8.25888429 24.0712978 8.27684711 20.18082619 8.28463173 C18.69562717 8.29018026 17.2104383 8.30101511 15.725317 8.31719017 C13.64697928 8.33892851 11.56939968 8.34196856 9.4909668 8.34057617 C8.30738083 8.34723801 7.12379486 8.35389984 5.90434265 8.36076355 C3 8 3 8 1.10603333 6.64668274 C-0.41381744 4.38390099 -0.21589873 2.66275098 0 0 Z " fill="#96557A" transform="translate(131,125)"/>
<path d="M0 0 C0.99 0.495 0.99 0.495 2 1 C4.09286161 1.12058055 6.18949778 1.17742678 8.28564453 1.20532227 C9.2516861 1.22017166 9.2516861 1.22017166 10.23724365 1.23532104 C12.36906235 1.26694499 14.50090335 1.29169687 16.6328125 1.31640625 C18.10969629 1.33697502 19.58657418 1.35797147 21.06344604 1.37937927 C24.95305611 1.43460799 28.84271937 1.4840137 32.73242188 1.53222656 C36.70056907 1.58243577 40.66863889 1.63812486 44.63671875 1.69335938 C52.42441367 1.80095072 60.21217286 1.90239348 68 2 C68.495 3.485 68.495 3.485 69 5 C68.34 5 67.68 5 67 5 C67 4.34 67 3.68 67 3 C66.34 3 65.68 3 65 3 C64.67 3.66 64.34 4.32 64 5 C43.54 5 23.08 5 2 5 C1.34 3.35 0.68 1.7 0 0 Z " fill="#FCEFFA" transform="translate(132,131)"/>
<path d="M0 0 C0.87890625 6.15234375 0.87890625 6.15234375 1 8 C0 9 0 9 -2.5625 9.0625 C-3.366875 9.041875 -4.17125 9.02125 -5 9 C-5.33 7.35 -5.66 5.7 -6 4 C-6.99 4 -7.98 4 -9 4 C-9.33 5.32 -9.66 6.64 -10 8 C-14.29 8 -18.58 8 -23 8 C-23.33 19.88 -23.66 31.76 -24 44 C-24.33 44 -24.66 44 -25 44 C-25 31.79 -25 19.58 -25 7 C-20.38 6.67 -15.76 6.34 -11 6 C-10.34 4.35 -9.68 2.7 -9 1 C-6.09879049 -0.3005422 -3.14412969 -0.08733694 0 0 Z " fill="#F4D6E7" transform="translate(162,212)"/>
<path d="M0 0 C2.50620823 1.43133555 3.96267163 2.86328976 6 5 C6 5.99 6 6.98 6 8 C-0.6 8 -7.2 8 -14 8 C-10.04251526 1.4041921 -7.94051263 -1.09524312 0 0 Z " fill="#FAECF7" transform="translate(241,231)"/>
<path d="M0 0 C0 0.99 0 1.98 0 3 C2.97 3 5.94 3 9 3 C9 3.33 9 3.66 9 4 C8.09507812 4.12955078 8.09507812 4.12955078 7.171875 4.26171875 C1.56622759 5.24722773 -0.61085789 6.23009629 -4 11 C-5.32 11 -6.64 11 -8 11 C-8 13.97 -8 16.94 -8 20 C-7.34 19.34 -6.68 18.68 -6 18 C-6.3125 19.9375 -6.3125 19.9375 -7 22 C-7.99 22.33 -8.98 22.66 -10 23 C-11.84942747 21.15057253 -11.2591876 18.29573569 -11.3125 15.8125 C-11.26853378 10.07804869 -10.94174039 7.16072597 -7 3 C-4.34200077 0.58363706 -3.64705667 0 0 0 Z " fill="#953E68" transform="translate(232,227)"/>
<path d="M0 0 C0.76408676 0.00187317 1.52817352 0.00374634 2.31541443 0.00567627 C3.92671082 0.01238447 5.53799126 0.02627457 7.14916992 0.046875 C9.61587661 0.07805904 12.08194373 0.0878513 14.54882812 0.09375 C16.11589321 0.10291957 17.6829518 0.11329519 19.25 0.125 C19.9875502 0.12924988 20.7251004 0.13349976 21.48500061 0.13787842 C24.60287663 0.18144388 27.07888356 0.33488827 30.05859375 1.328125 C30.05859375 2.318125 30.05859375 3.308125 30.05859375 4.328125 C29.55787354 4.16731445 29.05715332 4.00650391 28.54125977 3.84082031 C25.14558763 3.13958012 21.78855169 3.1455607 18.3359375 3.125 C17.22310143 3.11644989 17.22310143 3.11644989 16.08778381 3.10772705 C14.52362484 3.09830447 12.95944626 3.091754 11.39526367 3.08789062 C9.00079133 3.07814412 6.60716322 3.04708008 4.21289062 3.015625 C2.69141133 3.00909827 1.16992593 3.0038465 -0.3515625 3 C-1.06723892 2.9876532 -1.78291534 2.9753064 -2.52027893 2.96258545 C-5.42719273 2.97565368 -7.46077878 3.01215749 -9.92749023 4.63378906 C-11.68026539 7.56281858 -10.6697717 10.13452264 -9.94140625 13.328125 C-8.98556187 15.66400823 -8.98556187 15.66400823 -7.94140625 17.328125 C-9.59140625 16.998125 -11.24140625 16.668125 -12.94140625 16.328125 C-13.93970423 11.33663509 -14.15985716 7.97630785 -11.94140625 3.328125 C-8.45499991 -0.302676 -4.73776547 -0.07952982 0 0 Z " fill="#954F77" transform="translate(273.94140625,108.671875)"/>
<path d="M0 0 C6.15234375 0.5859375 6.15234375 0.5859375 8 1 C9.39935013 3.79870027 9.25265405 5.90498792 9 9 C7.875 10.875 7.875 10.875 6 12 C2.90498792 12.25265405 0.79870027 12.39935013 -2 11 C-3.50637312 4.85863268 -3.50637312 4.85863268 -1.5625 1.5625 C-1.046875 1.046875 -0.53125 0.53125 0 0 Z " fill="#EA7FA7" transform="translate(134,146)"/>
<path d="M0 0 C0.33 0 0.66 0 1 0 C1.33 10.23 1.66 20.46 2 31 C1.01 31 0.02 31 -1 31 C-0.67 20.77 -0.34 10.54 0 0 Z M2 3 C2.99 3 3.98 3 5 3 C5 11.91 5 20.82 5 30 C4.01 30 3.02 30 2 30 C2 21.09 2 12.18 2 3 Z " fill="#B05485" transform="translate(291,214)"/>
<path d="M0 0 C0.99 0 1.98 0 3 0 C3.09796875 0.66386719 3.1959375 1.32773438 3.296875 2.01171875 C4.20474663 7.37285726 5.02036413 11.02036413 9 15 C7.68 15.33 6.36 15.66 5 16 C5 20.62 5 25.24 5 30 C4.67 30 4.34 30 4 30 C3.67 28.35 3.34 26.7 3 25 C2.34 25.33 1.68 25.66 1 26 C0.67 17.42 0.34 8.84 0 0 Z " fill="#A34170" transform="translate(306,240)"/>
<path d="M0 0 C1.43352212 0.00015908 2.86704998 0.00585132 4.30053711 0.01586914 C5.43041298 0.01799156 5.43041298 0.01799156 6.58311462 0.02015686 C8.99807646 0.02577163 11.41294687 0.03832656 13.82788086 0.05102539 C15.46134307 0.05603849 17.09480672 0.06060173 18.72827148 0.06469727 C22.74067671 0.07574585 26.75301326 0.09302033 30.76538086 0.11352539 C30.76538086 0.44352539 30.76538086 0.77352539 30.76538086 1.11352539 C15.42038086 1.60852539 15.42038086 1.60852539 -0.23461914 2.11352539 C5.37538086 2.11352539 10.98538086 2.11352539 16.76538086 2.11352539 C17.09538086 2.77352539 17.42538086 3.43352539 17.76538086 4.11352539 C10.88535915 6.73448604 4.04362047 6.29522901 -3.23461914 6.11352539 C-3.61680681 4.45737882 -3.94857016 2.78895515 -4.23461914 1.11352539 C-3.23461914 0.11352539 -3.23461914 0.11352539 0 0 Z " fill="#9B4F7B" transform="translate(120.234619140625,212.886474609375)"/>
<path d="M0 0 C0.33 0.66 0.66 1.32 1 2 C2.32 1.67 3.64 1.34 5 1 C5.042721 2.66611905 5.04063832 4.33382885 5 6 C4 7 4 7 1.68334961 7.11352539 C0.68311768 7.10828857 -0.31711426 7.10305176 -1.34765625 7.09765625 C-2.42724609 7.09443359 -3.50683594 7.09121094 -4.61914062 7.08789062 C-5.75544922 7.07951172 -6.89175781 7.07113281 -8.0625 7.0625 C-9.20267578 7.05798828 -10.34285156 7.05347656 -11.51757812 7.04882812 C-14.34510351 7.03699747 -17.1725264 7.0205141 -20 7 C-20 6.67 -20 6.34 -20 6 C-16.7 6 -13.4 6 -10 6 C-10 5.34 -10 4.68 -10 4 C-13.3 4 -16.6 4 -20 4 C-20 3.34 -20 2.68 -20 2 C-13.4 2 -6.8 2 0 2 C0 1.34 0 0.68 0 0 Z " fill="#924069" transform="translate(248,238)"/>
<path d="M0 0 C0 0.99 0 1.98 0 3 C-7.93895926 6.96947963 -19.72738641 5.05285085 -28.46728516 4.75805664 C-30.65639936 4.68647325 -32.84551603 4.63283761 -35.03515625 4.58007812 C-36.43232464 4.53752746 -37.82946214 4.49394726 -39.2265625 4.44921875 C-41.10722412 4.39254028 -41.10722412 4.39254028 -43.02587891 4.3347168 C-46 4 -46 4 -48 2 C-47.45320587 1.98969254 -46.90641174 1.97938507 -46.3430481 1.96876526 C-40.66558615 1.86080672 -34.98828636 1.74620026 -29.31103516 1.62768555 C-27.19062687 1.58430248 -25.07018288 1.54262993 -22.94970703 1.50268555 C-19.90646592 1.44506457 -16.8634051 1.38134675 -13.8203125 1.31640625 C-12.39212692 1.29133751 -12.39212692 1.29133751 -10.93508911 1.26576233 C-10.05432709 1.24581711 -9.17356506 1.22587189 -8.26611328 1.20532227 C-7.10029221 1.18200584 -7.10029221 1.18200584 -5.91091919 1.15821838 C-3.66496252 0.9722599 -2.27280903 0 0 0 Z " fill="#933F6F" transform="translate(216,119)"/>
<path d="M0 0 C3.0920022 1.94930573 5.40752803 4.12730991 7.875 6.8125 C6.885 7.8025 5.895 8.7925 4.875 9.8125 C-0.075 7.8325 -0.075 7.8325 -5.125 5.8125 C-5.125 4.4925 -5.125 3.1725 -5.125 1.8125 C-5.75148438 1.90789062 -6.37796875 2.00328125 -7.0234375 2.1015625 C-8.24933594 2.26785156 -8.24933594 2.26785156 -9.5 2.4375 C-10.31210937 2.55351562 -11.12421875 2.66953125 -11.9609375 2.7890625 C-12.67507813 2.79679688 -13.38921875 2.80453125 -14.125 2.8125 C-14.785 2.1525 -15.445 1.4925 -16.125 0.8125 C-10.45497967 -1.40019086 -5.79533187 -2.20222611 0 0 Z " fill="#A54673" transform="translate(329.125,226.1875)"/>
<path d="M0 0 C0.99 0.495 0.99 0.495 2 1 C2 7.6 2 14.2 2 21 C2.66 21 3.32 21 4 21 C3.97679687 19.73542969 3.95359375 18.47085938 3.9296875 17.16796875 C3.91092874 15.5078184 3.89272865 13.84766167 3.875 12.1875 C3.84986328 10.93743164 3.84986328 10.93743164 3.82421875 9.66210938 C3.81777344 8.85966797 3.81132812 8.05722656 3.8046875 7.23046875 C3.79421387 6.49207764 3.78374023 5.75368652 3.77294922 4.99291992 C4 3 4 3 6 0 C6 7.59 6 15.18 6 23 C4.35 23.33 2.7 23.66 1 24 C0 23 0 23 -0.11352539 20.77514648 C-0.10828857 19.81680908 -0.10305176 18.85847168 -0.09765625 17.87109375 C-0.09443359 16.83662109 -0.09121094 15.80214844 -0.08789062 14.73632812 C-0.07951172 13.64771484 -0.07113281 12.55910156 -0.0625 11.4375 C-0.05798828 10.34501953 -0.05347656 9.25253906 -0.04882812 8.12695312 C-0.03699826 5.41791505 -0.02051543 2.70898401 0 0 Z " fill="#904972" transform="translate(189,235)"/>
<path d="M0 0 C8.15384615 0 8.15384615 0 13 3 C14.56935594 6.13871188 14.35201103 8.53855822 14 12 C12.0625 14.9375 12.0625 14.9375 9 17 C5.87335485 17.40782328 3.17557846 17.23698347 0 17 C0 11.39 0 5.78 0 0 Z M2 2 C2 6.29 2 10.58 2 15 C6.63981875 15.37054871 6.63981875 15.37054871 10.9375 13.9375 C12.6140629 10.88023824 12.36528977 8.4093712 12 5 C11.08333333 2.91666667 11.08333333 2.91666667 9 2 C5.37464024 1.7496423 5.37464024 1.7496423 2 2 Z " fill="#CEABB9" transform="translate(139,274)"/>
<path d="M0 0 C0.99 0.33 1.98 0.66 3 1 C-8.33544204 9.75361685 -19.04223264 13.17604212 -33.25 13.1875 C-34.0646875 13.19974609 -34.879375 13.21199219 -35.71875 13.22460938 C-37.81383174 13.22981239 -39.90851996 13.1229057 -42 13 C-42.66 12.34 -43.32 11.68 -44 11 C-43.38068604 10.98541748 -42.76137207 10.97083496 -42.12329102 10.95581055 C-39.26912227 10.88052583 -36.41602251 10.78413686 -33.5625 10.6875 C-32.58861328 10.66494141 -31.61472656 10.64238281 -30.61132812 10.61914062 C-24.96682107 10.41148317 -20.21591856 9.72503105 -14.95288086 7.63208008 C-13 7 -13 7 -9 7 C-9 6.34 -9 5.68 -9 5 C-7.6078125 4.319375 -7.6078125 4.319375 -6.1875 3.625 C-2.96078611 2.0578367 -2.96078611 2.0578367 0 0 Z " fill="#934D72" transform="translate(302,184)"/>
<path d="M0 0 C0.78375 0.2475 1.5675 0.495 2.375 0.75 C2.705 1.41 3.035 2.07 3.375 2.75 C0.405 2.255 0.405 2.255 -2.625 1.75 C-2.49465506 3.62053397 -2.49465506 3.62053397 -1.625 5.75 C-0.779375 6.389375 0.06625 7.02875 0.9375 7.6875 C3.375 9.75 3.375 9.75 3.8125 12.375 C3.375 14.75 3.375 14.75 1.375 16.75 C-1.125 16.625 -1.125 16.625 -3.625 15.75 C-4.9375 13.6875 -4.9375 13.6875 -5.625 11.75 C-4.305 11.42 -2.985 11.09 -1.625 10.75 C-2.285 10.193125 -2.945 9.63625 -3.625 9.0625 C-5.625 6.75 -5.625 6.75 -6.0625 4.125 C-5.918125 3.34125 -5.77375 2.5575 -5.625 1.75 C-2.625 -0.25 -2.625 -0.25 0 0 Z " fill="#D9B7C7" transform="translate(237.625,274.25)"/>
<path d="M0 0 C0.66 0.33 1.32 0.66 2 1 C2 10.57 2 20.14 2 30 C1.01 29.67 0.02 29.34 -1 29 C-1.02465881 25.03069011 -1.04284023 21.06140966 -1.05493164 17.09204102 C-1.05997057 15.74079614 -1.06680177 14.38955674 -1.07543945 13.03833008 C-1.08752419 11.09979566 -1.09269828 9.161222 -1.09765625 7.22265625 C-1.10289307 6.05484619 -1.10812988 4.88703613 -1.11352539 3.68383789 C-1 1 -1 1 0 0 Z " fill="#A24074" transform="translate(159,227)"/>
<path d="M0 0 C0.33 0 0.66 0 1 0 C1 12.87 1 25.74 1 39 C-1.475 39.495 -1.475 39.495 -4 40 C-5 39 -5 39 -5.11352539 35.39819336 C-5.11336625 33.79540144 -5.10767063 32.1926044 -5.09765625 30.58984375 C-5.0962413 29.74780899 -5.09482635 28.90577423 -5.09336853 28.03822327 C-5.08775263 25.33794665 -5.07519748 22.63775172 -5.0625 19.9375 C-5.05748705 18.11132932 -5.05292379 16.28515734 -5.04882812 14.45898438 C-5.03777804 9.97262458 -5.02050279 5.48632616 -5 1 C-4.67 1 -4.34 1 -4 1 C-4 12.88 -4 24.76 -4 37 C-2.68 37.33 -1.36 37.66 0 38 C0 25.46 0 12.92 0 0 Z " fill="#8C4A68" transform="translate(136,219)"/>
<path d="M0 0 C2 2 2 2 2 5 C-1.63 5 -5.26 5 -9 5 C-8.34 6.32 -7.68 7.64 -7 9 C-4.36 8.67 -1.72 8.34 1 8 C0.34 9.32 -0.32 10.64 -1 12 C-6.36842105 12.35789474 -6.36842105 12.35789474 -8.875 10.9375 C-10.64273274 7.8930714 -10.36823916 5.4368988 -10 2 C-7.70689559 -2.31643184 -4.20602073 -0.99415036 0 0 Z " fill="#CA96AC" transform="translate(254,279)"/>
<path d="M0 0 C0.33 0 0.66 0 1 0 C1.042721 1.66611905 1.04063832 3.33382885 1 5 C0.67 5.33 0.34 5.66 0 6 C-0.01674294 7.85583223 0.03724393 9.71239363 0.12109375 11.56640625 C0.16943359 12.69111328 0.21777344 13.81582031 0.26757812 14.97460938 C0.32365234 16.15861328 0.37972656 17.34261719 0.4375 18.5625 C0.48970703 19.75037109 0.54191406 20.93824219 0.59570312 22.16210938 C0.7258566 25.10831066 0.8608364 28.05421276 1 31 C1.33 29.35 1.66 27.7 2 26 C2.33 26 2.66 26 3 26 C3 29.63 3 33.26 3 37 C1.35 36.67 -0.3 36.34 -2 36 C-2.04944066 31.35524041 -2.08573863 26.71063404 -2.10986328 22.06567383 C-2.11992041 20.48556856 -2.13356785 18.9054819 -2.15087891 17.32543945 C-2.17514022 15.0541525 -2.18648582 12.78311164 -2.1953125 10.51171875 C-2.20563507 9.80536789 -2.21595764 9.09901703 -2.22659302 8.3712616 C-2.22743775 4.67802208 -2.10720523 3.16080784 0 0 Z " fill="#904167" transform="translate(307,234)"/>
<path d="M0 0 C3.125 0.3125 3.125 0.3125 5 2.1875 C6.125 4.3125 6.125 4.3125 6.125 6.3125 C2.495 6.3125 -1.135 6.3125 -4.875 6.3125 C-4.215 7.6325 -3.555 8.9525 -2.875 10.3125 C-2.111875 10.3125 -1.34875 10.3125 -0.5625 10.3125 C1.33333333 10.3125 3.22916667 10.3125 5.125 10.3125 C4 11.8125 4 11.8125 2.125 13.3125 C-1.0625 13.5 -1.0625 13.5 -3.875 13.3125 C-6.24093886 8.84350437 -6.24093886 8.84350437 -6.875 6.3125 C-5.1915214 2.44049921 -4.21008828 0.45761829 0 0 Z " fill="#C4A3B2" transform="translate(198.875,277.6875)"/>
<path d="M0 0 C2.27024968 -0.08097324 4.54132075 -0.13917704 6.8125 -0.1875 C8.07707031 -0.22230469 9.34164062 -0.25710937 10.64453125 -0.29296875 C14 0 14 0 15.92578125 1.32421875 C17.60776504 3.94811347 17.37899431 5.96804552 17 9 C15.9140625 10.6640625 15.9140625 10.6640625 14 12 C10.75 12.3984375 10.75 12.3984375 7 12.375 C5.7625 12.38273437 4.525 12.39046875 3.25 12.3984375 C0 12 0 12 -1.92578125 10.67578125 C-3.54193072 8.15458807 -3.1943264 5.91489605 -3 3 C-1 5 -1 5 -1 9 C3.95 9 8.9 9 14 9 C14 7.02 14 5.04 14 3 C9.38 2.34 4.76 1.68 0 1 C0 0.67 0 0.34 0 0 Z " fill="#D390A7" transform="translate(146,95)"/>
<path d="M0 0 C1.875 1.3125 1.875 1.3125 3 3 C3 3.99 3 4.98 3 6 C-0.63 6 -4.26 6 -8 6 C-7.34 7.32 -6.68 8.64 -6 10 C-3.36 9.67 -0.72 9.34 2 9 C1.67 9.99 1.34 10.98 1 12 C-5.37426409 13.32296047 -5.37426409 13.32296047 -7.9375 12 C-9.58367385 8.90131981 -9.36841966 6.43858351 -9 3 C-6.84332735 -0.71426957 -4.0099826 -0.50124783 0 0 Z " fill="#C59CAD" transform="translate(307,278)"/>
<path d="M0 0 C3.40925781 -0.4446858 5.34766313 -0.36050196 8.375 1.3125 C10 3 10 3 10 6 C6.37 6 2.74 6 -1 6 C-0.34 7.32 0.32 8.64 1 10 C4.04386724 10.08226668 6.07175348 9.97608217 9 9 C8.67 9.99 8.34 10.98 8 12 C2.74509804 13.31372549 2.74509804 13.31372549 -0.375 12 C-2 10 -2 10 -2.375 6.5 C-2 3 -2 3 0 0 Z " fill="#C396A9" transform="translate(158,278)"/>
<path d="M0 0 C1.32 0 2.64 0 4 0 C4 0.66 4 1.32 4 2 C3.01 2 2.02 2 1 2 C1 2.66 1 3.32 1 4 C1.66 4 2.32 4 3 4 C3 7.96 3 11.92 3 16 C2.34 16 1.68 16 1 16 C0.67 13.36 0.34 10.72 0 8 C-0.99 8.33 -1.98 8.66 -3 9 C-3.70381157 10.98723268 -4.3711811 12.98777953 -5 15 C-5.99 15.495 -5.99 15.495 -7 16 C-8.65 12.37 -10.3 8.74 -12 5 C-9 6 -9 6 -7.3125 9.0625 C-6.879375 10.031875 -6.44625 11.00125 -6 12 C-5.80664062 11.28972656 -5.61328125 10.57945312 -5.4140625 9.84765625 C-5.15367187 8.92855469 -4.89328125 8.00945312 -4.625 7.0625 C-4.36976563 6.14597656 -4.11453125 5.22945313 -3.8515625 4.28515625 C-3 2 -3 2 -1 1 C-0.67 0.67 -0.34 0.34 0 0 Z " fill="#D4B4C1" transform="translate(277,274)"/>
<path d="M0 0 C0.33 1.32 0.66 2.64 1 4 C1.99 4.33 2.98 4.66 4 5 C4.33 10.94 4.66 16.88 5 23 C3.35 22.67 1.7 22.34 0 22 C0 14.74 0 7.48 0 0 Z " fill="#9B3C6C" transform="translate(209,236)"/>
<path d="M0 0 C0.93457031 0.00966797 1.86914062 0.01933594 2.83203125 0.02929688 C3.80011719 0.05443359 4.76820313 0.07957031 5.765625 0.10546875 C7.24095703 0.12577148 7.24095703 0.12577148 8.74609375 0.14648438 C11.16982915 0.18178149 13.59244645 0.23108821 16.015625 0.29296875 C16.015625 0.62296875 16.015625 0.95296875 16.015625 1.29296875 C15.45576904 1.30755127 14.89591309 1.32213379 14.3190918 1.3371582 C11.77974363 1.41168227 9.24170422 1.50832456 6.703125 1.60546875 C5.82205078 1.62802734 4.94097656 1.65058594 4.03320312 1.67382812 C2.76186523 1.72700195 2.76186523 1.72700195 1.46484375 1.78125 C0.68455811 1.80743408 -0.09572754 1.83361816 -0.8996582 1.8605957 C-3.46894803 2.39346984 -4.4238378 3.2102457 -5.984375 5.29296875 C-5.75679769 7.45596086 -5.75679769 7.45596086 -4.984375 9.29296875 C-3.334375 9.62296875 -1.684375 9.95296875 0.015625 10.29296875 C0.97632934 13.17508177 1.12144383 14.99146919 1.078125 17.98046875 C1.06910156 18.78871094 1.06007813 19.59695312 1.05078125 20.4296875 C1.03917969 21.04457031 1.02757812 21.65945312 1.015625 22.29296875 C0.355625 22.29296875 -0.304375 22.29296875 -0.984375 22.29296875 C-0.984375 18.99296875 -0.984375 15.69296875 -0.984375 12.29296875 C-1.933125 12.18984375 -2.881875 12.08671875 -3.859375 11.98046875 C-6.984375 11.29296875 -6.984375 11.29296875 -8.984375 8.29296875 C-9.359375 5.79296875 -9.359375 5.79296875 -8.984375 3.29296875 C-6.04264395 0.47835471 -4.01634125 -0.07346966 0 0 Z " fill="#944C72" transform="translate(263.984375,59.70703125)"/>
<path d="M0 0 C3 5.75 3 5.75 3 8 C3.66 8 4.32 8 5 8 C5.28875 7.030625 5.5775 6.06125 5.875 5.0625 C7 2 7 2 9 1 C7.25192871 6.46737191 5.34205919 11.75824848 3 17 C2.34 17 1.68 17 1 17 C1.226875 15.96875 1.45375 14.9375 1.6875 13.875 C2.04178755 9.48183434 1.17257056 7.73682136 -1 4 C-1 3.34 -1 2.68 -1 2 C-2.32 2 -3.64 2 -5 2 C-5.33 5.63 -5.66 9.26 -6 13 C-6.66 13 -7.32 13 -8 13 C-8.46174617 4.99639964 -8.46174617 4.99639964 -6.8125 1.4375 C-4.44098326 -0.4433581 -2.95061143 -0.31898502 0 0 Z " fill="#C19DAB" transform="translate(215,278)"/>
<path d="M0 0 C2.63664741 0 4.50746285 0.25223886 7 1 C8 2 8 2 8.09765625 4.72265625 C8.08605469 5.82480469 8.07445312 6.92695313 8.0625 8.0625 C8.05347656 9.16722656 8.04445313 10.27195313 8.03515625 11.41015625 C8.02355469 12.26480469 8.01195312 13.11945313 8 14 C7.01 14.495 7.01 14.495 6 15 C3 13 3 13 2.3046875 10.9765625 C2.16289062 10.20054687 2.02109375 9.42453125 1.875 8.625 C1.72804688 7.85414063 1.58109375 7.08328125 1.4296875 6.2890625 C1.28789062 5.53367188 1.14609375 4.77828125 1 4 C0.67632921 2.66428816 0.34617896 1.33005602 0 0 Z " fill="#9B4472" transform="translate(331,234)"/>
<path d="M0 0 C7.92 0 15.84 0 24 0 C24 0.66 24 1.32 24 2 C17.4 2 10.8 2 4 2 C4 2.66 4 3.32 4 4 C7.3 4 10.6 4 14 4 C14 4.66 14 5.32 14 6 C7.565 6.495 7.565 6.495 1 7 C0.67 7.99 0.34 8.98 0 10 C-1 7 -1 7 0 0 Z " fill="#AE5C87" transform="translate(224,238)"/>
<path d="M0 0 C1.32 0.33 2.64 0.66 4 1 C3.67 3.97 3.34 6.94 3 10 C1.35 9.67 -0.3 9.34 -2 9 C-2 8.34 -2 7.68 -2 7 C-2.33 7.33 -2.66 7.66 -3 8 C-5.4375 8.1875 -5.4375 8.1875 -8 8 C-8.66 7.34 -9.32 6.68 -10 6 C-10 5.01 -10 4.02 -10 3 C-6.37 3 -2.74 3 1 3 C0.67 2.01 0.34 1.02 0 0 Z " fill="#F5DDE9" transform="translate(204,281)"/>
<path d="M0 0 C2.27734375 -0.43359375 2.27734375 -0.43359375 4.9375 -0.4375 C5.81277344 -0.45683594 6.68804687 -0.47617188 7.58984375 -0.49609375 C10 0 10 0 11.8359375 1.88671875 C13 4 13 4 12.6875 6.25 C12.3471875 7.11625 12.3471875 7.11625 12 8 C8.76834156 7.28269264 5.81292078 6.18684926 2.75 4.9375 C1.85796875 4.57527344 0.9659375 4.21304688 0.046875 3.83984375 C-0.96632812 3.42412109 -0.96632812 3.42412109 -2 3 C-1.34 2.01 -0.68 1.02 0 0 Z " fill="#933D63" transform="translate(198,226)"/>
<path d="M0 0 C8.11379927 2.28200604 13.87223531 9.71848826 19 16 C18.34 16.66 17.68 17.32 17 18 C17 17.01 17 16.02 17 15 C16.34 15 15.68 15 15 15 C15 14.34 15 13.68 15 13 C14.34 13 13.68 13 13 13 C13 12.34 13 11.68 13 11 C12.34 11 11.68 11 11 11 C11 10.34 11 9.68 11 9 C10.38511719 8.96261719 9.77023437 8.92523438 9.13671875 8.88671875 C8.32847656 8.82097656 7.52023437 8.75523438 6.6875 8.6875 C5.88699219 8.62949219 5.08648437 8.57148437 4.26171875 8.51171875 C1.63727666 7.91793306 0.69179328 7.04219706 -1 5 C-0.34 5 0.32 5 1 5 C0.67 3.35 0.34 1.7 0 0 Z " fill="#994972" transform="translate(298,90)"/>
<path d="M0 0 C0.66 1.32 1.32 2.64 2 4 C1.34 4 0.68 4 0 4 C0 4.66 0 5.32 0 6 C0.66 6 1.32 6 2 6 C1.98839844 7.20398438 1.97679687 8.40796875 1.96484375 9.6484375 C1.95546566 11.22395679 1.94636548 12.79947775 1.9375 14.375 C1.92912109 15.1690625 1.92074219 15.963125 1.91210938 16.78125 C1.76959849 21.02392222 1.76959849 21.02392222 3 25 C1.35 25 -0.3 25 -2 25 C-1.67 24.34 -1.34 23.68 -1 23 C-0.92749932 21.34390321 -0.91624751 19.68489051 -0.9375 18.02734375 C-0.94523438 17.04572266 -0.95296875 16.06410156 -0.9609375 15.05273438 C-0.97382813 14.02470703 -0.98671875 12.99667969 -1 11.9375 C-1.02539038 9.90499973 -1.04646374 7.87243934 -1.0625 5.83984375 C-1.07410156 4.93613037 -1.08570313 4.03241699 -1.09765625 3.10131836 C-1 1 -1 1 0 0 Z " fill="#A5446F" transform="translate(172,234)"/>
<path d="M0 0 C10.23 0 20.46 0 31 0 C31 0.33 31 0.66 31 1 C26.32289566 2.84029144 22.1583177 3.28218224 17.1875 3.1875 C16.48625 3.18105469 15.785 3.17460938 15.0625 3.16796875 C9.97860661 3.09279103 5.02946044 2.71849435 0 2 C0 1.34 0 0.68 0 0 Z " fill="#953E6E" transform="translate(136,121)"/>
<path d="M0 0 C6.44994077 -0.24339399 12.76195973 0.22396745 19 2 C19.33 2.66 19.66 3.32 20 4 C21.89533342 4.46523063 21.89533342 4.46523063 24.0625 4.625 C25.361875 4.74875 26.66125 4.8725 28 5 C27.01 6.485 27.01 6.485 26 8 C25.3915625 7.81824219 24.783125 7.63648438 24.15625 7.44921875 C15.86191269 5.07069555 7.48639661 3.50135749 -1 2 C-0.67 1.34 -0.34 0.68 0 0 Z " fill="#985077" transform="translate(217,183)"/>
<path d="M0 0 C0.66 0.33 1.32 0.66 2 1 C1.01773438 2.11761719 1.01773438 2.11761719 0.015625 3.2578125 C-3.15647382 8.01596073 -2.42618295 13.37267081 -2.25 18.875 C-2.23195312 19.94492188 -2.21390625 21.01484375 -2.1953125 22.1171875 C-2.14837439 24.74572178 -2.08272933 27.37238913 -2 30 C-2.99 30 -3.98 30 -5 30 C-5.08736736 26.27098186 -5.14051482 22.54222835 -5.1875 18.8125 C-5.21263672 17.75740234 -5.23777344 16.70230469 -5.26367188 15.61523438 C-5.27333984 14.59365234 -5.28300781 13.57207031 -5.29296875 12.51953125 C-5.31653442 11.11344604 -5.31653442 11.11344604 -5.34057617 9.67895508 C-4.81313297 5.53011329 -2.9123286 2.9123286 0 0 Z " fill="#945577" transform="translate(174,228)"/>
<path d="M0 0 C0.96164062 0.00386719 1.92328125 0.00773438 2.9140625 0.01171875 C5.375 0.3125 5.375 0.3125 7.375 2.3125 C7.045 2.9725 6.715 3.6325 6.375 4.3125 C1.58363728 5.90962091 -2.88349269 5.89300244 -7.625 4.3125 C-8.285 3.9825 -8.945 3.6525 -9.625 3.3125 C-6.4011479 0.41714467 -4.29859296 -0.07531228 0 0 Z " fill="#A14576" transform="translate(278.625,254.6875)"/>
<path d="M0 0 C0.99 0 1.98 0 3 0 C3 0.66 3 1.32 3 2 C3.74685059 1.98952637 4.49370117 1.97905273 5.26318359 1.96826172 C8.63375508 1.9267923 12.004273 1.90070271 15.375 1.875 C16.550625 1.85824219 17.72625 1.84148437 18.9375 1.82421875 C20.61972656 1.81455078 20.61972656 1.81455078 22.3359375 1.8046875 C23.37282715 1.79421387 24.4097168 1.78374023 25.47802734 1.77294922 C28 2 28 2 30 4 C25.56255461 4.05793591 21.12520611 4.09357467 16.6875 4.125 C15.42486328 4.14175781 14.16222656 4.15851563 12.86132812 4.17578125 C11.04858398 4.18544922 11.04858398 4.18544922 9.19921875 4.1953125 C8.08377686 4.20578613 6.96833496 4.21625977 5.8190918 4.22705078 C3 4 3 4 0 2 C0 1.34 0 0.68 0 0 Z " fill="#8F446F" transform="translate(181,103)"/>
<path d="M0 0 C0.66 0.99 1.32 1.98 2 3 C-0.97 2.67 -3.94 2.34 -7 2 C-7.33 4.64 -7.66 7.28 -8 10 C-2.91696314 10.11320856 -2.91696314 10.11320856 2 9 C1.34 10.32 0.68 11.64 0 13 C-3.18136394 13.21691118 -5.43969547 13.25066255 -8.375 11.9375 C-10 10 -10 10 -10.5 6.5 C-10 3 -10 3 -8.375 1.0625 C-5.35429678 -0.28886723 -3.27337643 -0.42696214 0 0 Z " fill="#C6A9B4" transform="translate(293,278)"/>
<path d="M0 0 C0.66 0 1.32 0 2 0 C1.67 2.97 1.34 5.94 1 9 C0.34 9 -0.32 9 -1 9 C-1.33 9.99 -1.66 10.98 -2 12 C-2.66 12 -3.32 12 -4 12 C-4 10.68 -4 9.36 -4 8 C-11.26 8 -18.52 8 -26 8 C-26 7.34 -26 6.68 -26 6 C-13.625 5.505 -13.625 5.505 -1 5 C-0.67 3.35 -0.34 1.7 0 0 Z " fill="#F8D9EC" transform="translate(253,239)"/>
<path d="M0 0 C1.65 0 3.3 0 5 0 C5 0.66 5 1.32 5 2 C-2.13058893 5.42268269 -9.15511 5.92828165 -17 5 C-20.4296875 3.4765625 -20.4296875 3.4765625 -23 2 C-19.25 0.875 -19.25 0.875 -17 2 C-14.28737884 2.2322646 -11.59226874 2.41936235 -8.875 2.5625 C-7.74384766 2.62727539 -7.74384766 2.62727539 -6.58984375 2.69335938 C-4.72678112 2.7994832 -2.86341476 2.90025001 -1 3 C-0.67 2.01 -0.34 1.02 0 0 Z " fill="#974D71" transform="translate(281,169)"/>
<path d="M0 0 C1.32 0 2.64 0 4 0 C3.34 3.3 2.68 6.6 2 10 C1.01 10.33 0.02 10.66 -1 11 C-1.99 12.485 -1.99 12.485 -3 14 C-5.8203125 14.29296875 -5.8203125 14.29296875 -9.125 14.1875 C-10.76855469 14.14689453 -10.76855469 14.14689453 -12.4453125 14.10546875 C-13.28835937 14.07066406 -14.13140625 14.03585937 -15 14 C-15 13.67 -15 13.34 -15 13 C-14.09507812 12.96132813 -14.09507812 12.96132813 -13.171875 12.921875 C-9.40067298 12.65424131 -6.71209714 12.46286314 -3.5 10.375 C-1.55505227 7.29549942 -1.33878133 4.59108213 -1 1 C-0.67 0.67 -0.34 0.34 0 0 Z " fill="#FDEDF6" transform="translate(154,278)"/>
<path d="M0 0 C2.17578125 0.02734375 2.17578125 0.02734375 4.125 0.375 C6.1875 2.5625 6.1875 2.5625 7.125 5.375 C6.8125 8.1875 6.8125 8.1875 6.125 10.375 C5.795 10.375 5.465 10.375 5.125 10.375 C4.465 8.395 3.805 6.415 3.125 4.375 C1.145 4.375 -0.835 4.375 -2.875 4.375 C-3.205 8.995 -3.535 13.615 -3.875 18.375 C-4.205 18.375 -4.535 18.375 -4.875 18.375 C-4.90184312 15.56243719 -4.92176188 12.75012759 -4.9375 9.9375 C-4.94587891 9.13505859 -4.95425781 8.33261719 -4.96289062 7.50585938 C-4.9715143 5.46204779 -4.9272815 3.41816098 -4.875 1.375 C-3.875 0.375 -3.875 0.375 0 0 Z " fill="#9D587D" transform="translate(304.875,130.625)"/>
<path d="M0 0 C0.8723412 2.99480917 1.10829766 5.63575911 1.0625 8.75 C1.05347656 9.54921875 1.04445313 10.3484375 1.03515625 11.171875 C1.01775391 12.07679688 1.01775391 12.07679688 1 13 C1.639375 13.309375 2.27875 13.61875 2.9375 13.9375 C5 15 5 15 6 16 C7.34747084 16.23075082 8.70377565 16.41153063 10.0625 16.5625 C11.361875 16.706875 12.66125 16.85125 14 17 C11 19 11 19 7.625 18.875 C3.71772807 17.9318654 1.8574594 16.77341648 -1 14 C-2.16983345 11.6603331 -2.1661241 10.16608473 -2.1875 7.5625 C-2.20167969 6.78003906 -2.21585937 5.99757812 -2.23046875 5.19140625 C-2 3 -2 3 0 0 Z " fill="#F5D7EB" transform="translate(313,235)"/>
<path d="M0 0 C0.99 0 1.98 0 3 0 C3.1875 2.875 3.1875 2.875 3 6 C0 8 0 8 -5 8 C-5 11.63 -5 15.26 -5 19 C-5.99 18.67 -6.98 18.34 -8 18 C-8.04612239 14.54740941 -7.92121382 11.33940009 -7 8 C-4.77076948 5.86722657 -2.92296558 5.16918623 0 4 C0 2.68 0 1.36 0 0 Z " fill="#954375" transform="translate(280,64)"/>
<path d="M0 0 C2.24434537 3.36651805 2.20138902 4.21596988 1.9765625 8.10546875 C1.89921875 9.57983398 1.89921875 9.57983398 1.8203125 11.08398438 C1.75585938 12.10814453 1.69140625 13.13230469 1.625 14.1875 C1.56828125 15.22326172 1.5115625 16.25902344 1.453125 17.32617188 C1.31163334 19.88481271 1.16022134 22.44247484 1 25 C0.34 25 -0.32 25 -1 25 C-1.0289337 21.20834926 -1.04677601 17.41672673 -1.0625 13.625 C-1.07087891 12.54476562 -1.07925781 11.46453125 -1.08789062 10.3515625 C-1.09111328 9.3203125 -1.09433594 8.2890625 -1.09765625 7.2265625 C-1.10289307 6.27346191 -1.10812988 5.32036133 -1.11352539 4.33837891 C-1 2 -1 2 0 0 Z " fill="#A23F78" transform="translate(192,231)"/>
<path d="M0 0 C-3.93946298 4.78363362 -10.16948059 5.16291646 -16 6 C-21.66601358 6.32161419 -27.33124091 6.18330119 -33 6 C-33 5.67 -33 5.34 -33 5 C-31.49373047 4.97873047 -31.49373047 4.97873047 -29.95703125 4.95703125 C-21.29978798 4.69965375 -14.61585038 3.61032721 -6.671875 -0.0390625 C-3.85433944 -1.05238669 -2.73703842 -1.08178185 0 0 Z " fill="#92456E" transform="translate(296,179)"/>
<path d="M0 0 C2 2 2 2 2.22705078 4.24658203 C2.21657715 5.15778809 2.20610352 6.06899414 2.1953125 7.0078125 C2.18886719 7.99394531 2.18242187 8.98007813 2.17578125 9.99609375 C2.15902344 11.02863281 2.14226562 12.06117188 2.125 13.125 C2.11597656 14.16527344 2.10695312 15.20554688 2.09765625 16.27734375 C2.07403747 18.85179092 2.04110149 21.42578212 2 24 C1.34 24 0.68 24 0 24 C-0.19682269 20.56296699 -0.38085152 17.12536573 -0.5625 13.6875 C-0.61857422 12.71103516 -0.67464844 11.73457031 -0.73242188 10.72851562 C-0.78076172 9.79072266 -0.82910156 8.85292969 -0.87890625 7.88671875 C-0.9260376 7.02264404 -0.97316895 6.15856934 -1.02172852 5.26831055 C-1 3 -1 3 0 0 Z " fill="#9B567C" transform="translate(213,234)"/>
<path d="M0 0 C2.0625 0.4375 2.0625 0.4375 4 1 C4 2.98 4 4.96 4 7 C3.67 6.01 3.34 5.02 3 4 C2.01 4 1.02 4 0 4 C0 12.91 0 21.82 0 31 C-0.33 31 -0.66 31 -1 31 C-1.02465622 26.74585377 -1.04283899 22.49174502 -1.05493164 18.23754883 C-1.05997101 16.78929927 -1.06680253 15.34105483 -1.07543945 13.89282227 C-1.08752247 11.81525412 -1.09323211 9.73775303 -1.09765625 7.66015625 C-1.10289307 6.40855713 -1.10812988 5.15695801 -1.11352539 3.86743164 C-1 1 -1 1 0 0 Z " fill="#8F446A" transform="translate(293,213)"/>
<path d="M0 0 C0.75042068 0.0028299 1.50084137 0.00565979 2.27400208 0.00857544 C4.668508 0.01976188 7.06263856 0.04486322 9.45703125 0.0703125 C11.0813748 0.08034431 12.70572422 0.08946981 14.33007812 0.09765625 C18.31004025 0.11969613 22.28972213 0.1542151 26.26953125 0.1953125 C26.26953125 0.5253125 26.26953125 0.8553125 26.26953125 1.1953125 C25.28557373 1.20989502 24.30161621 1.22447754 23.2878418 1.23950195 C19.63659351 1.29748248 15.98596214 1.37471435 12.33520508 1.45776367 C10.75522882 1.49101438 9.17513373 1.51904596 7.5949707 1.54174805 C5.32321546 1.57529266 3.05254922 1.62760477 0.78125 1.68359375 C0.07489914 1.68998367 -0.63145172 1.6963736 -1.35920715 1.70295715 C-5.25357517 1.81400757 -5.25357517 1.81400757 -8.62573242 3.59057617 C-9.86319211 5.38810602 -10.83817963 7.20482139 -11.73046875 9.1953125 C-11.41796875 5.8203125 -11.41796875 5.8203125 -10.73046875 2.1953125 C-7.03888557 -0.26574295 -4.26423321 -0.06044543 0 0 Z " fill="#FAE1F7" transform="translate(273.73046875,110.8046875)"/>
<path d="M0 0 C3.63 0 7.26 0 11 0 C10.67 1.32 10.34 2.64 10 4 C3.9453125 4.9765625 3.9453125 4.9765625 2 5 C1.34 4.34 0.68 3.68 0 3 C0 2.01 0 1.02 0 0 Z " fill="#F6DDE9" transform="translate(299,284)"/>
<path d="M0 0 C3.63 0 7.26 0 11 0 C10.67 1.32 10.34 2.64 10 4 C3.9453125 4.9765625 3.9453125 4.9765625 2 5 C1.34 4.34 0.68 3.68 0 3 C0 2.01 0 1.02 0 0 Z " fill="#F7DFEB" transform="translate(157,284)"/>
<path d="M0 0 C3.96 0 7.92 0 12 0 C12 0.66 12 1.32 12 2 C12.99 2.33 13.98 2.66 15 3 C14.09507812 3.09087891 14.09507812 3.09087891 13.171875 3.18359375 C11.97304688 3.30927734 11.97304688 3.30927734 10.75 3.4375 C9.96109375 3.51871094 9.1721875 3.59992188 8.359375 3.68359375 C6.17635361 3.97634993 4.1226818 4.42064419 2 5 C2 4.34 2 3.68 2 3 C1.01 3 0.02 3 -1 3 C-0.67 2.01 -0.34 1.02 0 0 Z " fill="#984269" transform="translate(312,228)"/>
<path d="M0 0 C2.97 0.495 2.97 0.495 6 1 C5.401875 1.268125 4.80375 1.53625 4.1875 1.8125 C1.98180967 3.00987475 0.56416813 4.04478984 -1 6 C-1 6.99 -1 7.98 -1 9 C1.31 9.33 3.62 9.66 6 10 C6 10.66 6 11.32 6 12 C0.25 12.125 0.25 12.125 -2 11 C-3.50637312 4.85863268 -3.50637312 4.85863268 -1.5625 1.5625 C-1.046875 1.046875 -0.53125 0.53125 0 0 Z " fill="#DA89A8" transform="translate(134,146)"/>
<path d="M0 0 C1.65 0 3.3 0 5 0 C5.33 0.66 5.66 1.32 6 2 C4.35 2 2.7 2 1 2 C1.845625 2.721875 2.69125 3.44375 3.5625 4.1875 C6 7 6 7 5.8125 9.8125 C5.4103125 10.8953125 5.4103125 10.8953125 5 12 C3.35 12.33 1.7 12.66 0 13 C-0.33 12.01 -0.66 11.02 -1 10 C0.65 10 2.3 10 4 10 C4 9.34 4 8.68 4 8 C3.360625 7.731875 2.72125 7.46375 2.0625 7.1875 C0 6 0 6 -1 3 C-0.67 2.01 -0.34 1.02 0 0 Z " fill="#C3A8B4" transform="translate(313,278)"/>
<path d="M0 0 C8.25498891 0.48558758 8.25498891 0.48558758 11.625 2.8125 C13 5 13 5 12.75 7.25 C12.5025 7.8275 12.255 8.405 12 9 C11.525625 8.195625 11.05125 7.39125 10.5625 6.5625 C9.23099846 4.15246512 9.23099846 4.15246512 8 3 C5.67182036 2.63239269 3.3381615 2.29758419 1 2 C1 5.96 1 9.92 1 14 C0.67 14 0.34 14 0 14 C0 9.38 0 4.76 0 0 Z " fill="#B99EAB" transform="translate(140,274)"/>
<path d="M0 0 C6.6 0 13.2 0 20 0 C20 0.99 20 1.98 20 3 C16.7 3 13.4 3 10 3 C10 2.34 10 1.68 10 1 C6.7 1 3.4 1 0 1 C0 0.67 0 0.34 0 0 Z " fill="#A33B72" transform="translate(228,241)"/>
<path d="M0 0 C1 6.625 1 6.625 1 10 C-1.64 10.33 -4.28 10.66 -7 11 C-6.505 10.62875 -6.01 10.2575 -5.5 9.875 C-3.68114524 8.00162681 -3.68114524 8.00162681 -4 4.9375 C-4 3.968125 -4 2.99875 -4 2 C-1 0 -1 0 0 0 Z " fill="#FAE6F3" transform="translate(244,281)"/>
<path d="M0 0 C1.2065625 0.0309375 1.2065625 0.0309375 2.4375 0.0625 C2.81968767 1.71864657 3.15145102 3.38707024 3.4375 5.0625 C2.4375 6.0625 2.4375 6.0625 -0.125 6.125 C-1.3315625 6.0940625 -1.3315625 6.0940625 -2.5625 6.0625 C-2.94468767 4.40635343 -3.27645102 2.73792976 -3.5625 1.0625 C-2.5625 0.0625 -2.5625 0.0625 0 0 Z " fill="#94526D" transform="translate(159.5625,214.9375)"/>
<path d="M0 0 C0 0.66 0 1.32 0 2 C-0.99 2.495 -0.99 2.495 -2 3 C-2.4683265 5.58605332 -2.4683265 5.58605332 -2.625 8.5625 C-2.69976562 9.57441406 -2.77453125 10.58632813 -2.8515625 11.62890625 C-2.90054687 12.41136719 -2.94953125 13.19382812 -3 14 C-3.99 13.67 -4.98 13.34 -6 13 C-6.48929664 5.78287462 -6.48929664 5.78287462 -4.125 2 C-2 0 -2 0 0 0 Z " fill="#D5B6C3" transform="translate(264,278)"/>
<path d="M0 0 C0 1.32 0 2.64 0 4 C-0.33 3.34 -0.66 2.68 -1 2 C-2.32 2 -3.64 2 -5 2 C-5.33 5.63 -5.66 9.26 -6 13 C-6.66 13 -7.32 13 -8 13 C-8.46174617 4.99639964 -8.46174617 4.99639964 -6.8125 1.4375 C-4.44098326 -0.4433581 -2.95061143 -0.31898502 0 0 Z " fill="#CAABB7" transform="translate(215,278)"/>
<path d="M0 0 C0.99 0 1.98 0 3 0 C5.21538462 5.41538462 5.21538462 5.41538462 4.125 8.375 C3.75375 8.91125 3.3825 9.4475 3 10 C2.01 10 1.02 10 0 10 C0 6.7 0 3.4 0 0 Z " fill="#FCEDF7" transform="translate(177,280)"/>
<path d="M0 0 C2.97 0.495 2.97 0.495 6 1 C5.1875 3.4375 5.1875 3.4375 4 6 C3.01 6.33 2.02 6.66 1 7 C-0.39712274 8.95597184 -1.73779907 10.95436401 -3 13 C-3.66 12.67 -4.32 12.34 -5 12 C-4.6390625 11.30132812 -4.278125 10.60265625 -3.90625 9.8828125 C-3.4421875 8.97273438 -2.978125 8.06265625 -2.5 7.125 C-2.0359375 6.22007812 -1.571875 5.31515625 -1.09375 4.3828125 C0.13905589 2.13403141 0.13905589 2.13403141 0 0 Z " fill="#F3E0EB" transform="translate(189,278)"/>
<path d="M0 0 C1.98 0 3.96 0 6 0 C6.66 1.65 7.32 3.3 8 5 C5.75 5.6875 5.75 5.6875 3 6 C0.6875 4.5625 0.6875 4.5625 -1 3 C-0.67 2.01 -0.34 1.02 0 0 Z " fill="#9B4269" transform="translate(265,251)"/>
<path d="M0 0 C1.27230469 0.01804688 2.54460937 0.03609375 3.85546875 0.0546875 C5.31919922 0.08949219 5.31919922 0.08949219 6.8125 0.125 C6.4825 1.115 6.1525 2.105 5.8125 3.125 C5.1525 2.795 4.4925 2.465 3.8125 2.125 C-1.24668749 1.74317453 -4.06696394 2.14905729 -8.1875 5.125 C-9.1775 5.785 -10.1675 6.445 -11.1875 7.125 C-10.875 4.75 -10.875 4.75 -10.1875 2.125 C-6.4507157 -0.36618953 -4.44298181 -0.0815226 0 0 Z " fill="#F7E5F3" transform="translate(182.1875,223.875)"/>
<path d="M0 0 C0.33 0 0.66 0 1 0 C1.36923077 7.38461538 1.36923077 7.38461538 -0.5 10.5 C-0.995 10.995 -1.49 11.49 -2 12 C-3.32 11.67 -4.64 11.34 -6 11 C-4.02 7.37 -2.04 3.74 0 0 Z " fill="#995275" transform="translate(309,156)"/>
<path d="M0 0 C2.31 0.66 4.62 1.32 7 2 C7 5.3 7 8.6 7 12 C5.35 12.33 3.7 12.66 2 13 C2 12.34 2 11.68 2 11 C2.66 10.67 3.32 10.34 4 10 C4 7.69 4 5.38 4 3 C2.68 2.67 1.36 2.34 0 2 C0 1.34 0 0.68 0 0 Z " fill="#FBE4F6" transform="translate(256,70)"/>
<path d="M0 0 C0.33 0 0.66 0 1 0 C1 2.64 1 5.28 1 8 C0.01 8.495 0.01 8.495 -1 9 C-1.185625 8.38125 -1.37125 7.7625 -1.5625 7.125 C-3.71437233 3.94397134 -6.37533763 3.80548053 -10 3 C-6.54153783 0.69435855 -5.0333286 0.91231894 -1 1 C-0.67 0.67 -0.34 0.34 0 0 Z " fill="#FDEEF8" transform="translate(169,275)"/>
<path d="M0 0 C1.625 2.5 1.625 2.5 3 5 C0.69 5.66 -1.62 6.32 -4 7 C-6 4 -6 4 -6 1 C-3.92446352 0.4465236 -2.15634036 0 0 0 Z " fill="#9F4E72" transform="translate(267,246)"/>
<path d="M0 0 C2.62113708 0 4.50935112 0.31292445 7 1 C6.67 1.70125 6.34 2.4025 6 3.125 C4.90955438 6.26003116 4.84677357 8.70563182 5 12 C3 11 3 11 2.1484375 8.49609375 C1.89320313 7.48675781 1.63796875 6.47742188 1.375 5.4375 C1.11460937 4.42558594 0.85421875 3.41367188 0.5859375 2.37109375 C0.39257812 1.58863281 0.19921875 0.80617187 0 0 Z " fill="#93416A" transform="translate(331,234)"/>
<path d="M0 0 C0.70125 0.804375 1.4025 1.60875 2.125 2.4375 C5.26291593 5.23433811 6.88758763 5.71308751 11 6 C9.68 6.33 8.36 6.66 7 7 C8.98 9.97 8.98 9.97 11 13 C6.78209731 11.67786355 5.02897493 10.22699886 2.6875 6.5 C2.17574219 5.7059375 1.66398438 4.911875 1.13671875 4.09375 C0 2 0 2 0 0 Z " fill="#9A4670" transform="translate(245,156)"/>
<path d="M0 0 C0.33 0 0.66 0 1 0 C2.10087193 7.01805857 2.09733092 13.90565767 2 21 C-0.97323444 16.54014834 -1.138064 13.19204757 -1.125 7.875 C-1.12886719 6.29332031 -1.12886719 6.29332031 -1.1328125 4.6796875 C-1 2 -1 2 0 0 Z " fill="#EBCCDF" transform="translate(233,136)"/>
<path d="M0 0 C0.99 0.33 1.98 0.66 3 1 C3 3.31 3 5.62 3 8 C2.34 8 1.68 8 1 8 C1 9.32 1 10.64 1 12 C-0.32 11.67 -1.64 11.34 -3 11 C-2.67 10.01 -2.34 9.02 -2 8 C-2 8.66 -2 9.32 -2 10 C-1.34 10 -0.68 10 0 10 C0 6.7 0 3.4 0 0 Z " fill="#F9E3EE" transform="translate(280,280)"/>
<path d="M0 0 C0.33 0.66 0.66 1.32 1 2 C6.445 1.01 6.445 1.01 12 0 C8.04725898 3.95274102 8.04725898 3.95274102 4.8359375 4.09765625 C3.61777344 4.08025391 3.61777344 4.08025391 2.375 4.0625 C1.14910156 4.04896484 1.14910156 4.04896484 -0.1015625 4.03515625 C-1.04128906 4.01775391 -1.04128906 4.01775391 -2 4 C-2.33 3.34 -2.66 2.68 -3 2 C-2.01 1.34 -1.02 0.68 0 0 Z " fill="#9F5D7E" transform="translate(319,256)"/>
<path d="M0 0 C0 0.33 0 0.66 0 1 C-0.90363281 0.98839844 -1.80726563 0.97679687 -2.73828125 0.96484375 C-4.50751953 0.95130859 -4.50751953 0.95130859 -6.3125 0.9375 C-7.48425781 0.92589844 -8.65601563 0.91429687 -9.86328125 0.90234375 C-13.03059195 0.85100102 -13.03059195 0.85100102 -16 2 C-16.66 1.34 -17.32 0.68 -18 0 C-11.63872727 -2.4824479 -6.2522219 -3.03138031 0 0 Z " fill="#9C617F" transform="translate(331,227)"/>
<path d="M0 0 C1.32 0.33 2.64 0.66 4 1 C4 1.99 4 2.98 4 4 C6.475 4.99 6.475 4.99 9 6 C8.67 6.99 8.34 7.98 8 9 C6.35 8.67 4.7 8.34 3 8 C2.87625 6.865625 2.7525 5.73125 2.625 4.5625 C2.41875 3.386875 2.2125 2.21125 2 1 C1.34 0.67 0.68 0.34 0 0 Z " fill="#F9EAF2" transform="translate(309,280)"/>
<path d="M0 0 C3.3 0 6.6 0 10 0 C9.01 0.495 9.01 0.495 8 1 C7.67 1.99 7.34 2.98 7 4 C5.35 4 3.7 4 2 4 C1.34 2.68 0.68 1.36 0 0 Z " fill="#FCEAF4" transform="translate(194,285)"/>
<path d="M0 0 C0.598125 0.350625 1.19625 0.70125 1.8125 1.0625 C0.4925 2.7125 -0.8275 4.3625 -2.1875 6.0625 C-3.5075 5.7325 -4.8275 5.4025 -6.1875 5.0625 C-5.8575 3.4125 -5.5275 1.7625 -5.1875 0.0625 C-2.1875 -0.9375 -2.1875 -0.9375 0 0 Z " fill="#A34B72" transform="translate(229.1875,231.9375)"/>
<path d="M0 0 C0.33 0 0.66 0 1 0 C0.63495936 5.66442374 -0.0554321 10.00703705 -3 15 C-3.33 15 -3.66 15 -4 15 C-4.10088172 10.56120428 -3.99760653 6.99521305 -2 3 C-1.34 3 -0.68 3 0 3 C0 2.01 0 1.02 0 0 Z " fill="#93456E" transform="translate(324,151)"/>
<path d="M0 0 C2.64 0 5.28 0 8 0 C8 0.99 8 1.98 8 3 C5.69 3.33 3.38 3.66 1 4 C0.67 2.68 0.34 1.36 0 0 Z " fill="#FAF1F8" transform="translate(246,285)"/>
<path d="M0 0 C4.75 0.75 4.75 0.75 7 3 C7 3.99 7 4.98 7 6 C5.68 6.33 4.36 6.66 3 7 C3 6.34 3 5.68 3 5 C2.34 5 1.68 5 1 5 C0.67 3.35 0.34 1.7 0 0 Z " fill="#9D4A6E" transform="translate(246,233)"/>
<path d="M0 0 C1.65 0 3.3 0 5 0 C3.68 0.33 2.36 0.66 1 1 C1.99 1.33 2.98 1.66 4 2 C3.1875 3.9375 3.1875 3.9375 2 6 C1.01 6.33 0.02 6.66 -1 7 C-1 6.34 -1 5.68 -1 5 C-1.66 5 -2.32 5 -3 5 C-3 4.34 -3 3.68 -3 3 C-2.34 3 -1.68 3 -1 3 C-0.67 2.01 -0.34 1.02 0 0 Z " fill="#F0E7EC" transform="translate(199,231)"/>
<path d="M0 0 C-0.33 2.97 -0.66 5.94 -1 9 C-1.99 8.67 -2.98 8.34 -4 8 C-4.6875 5.9375 -4.6875 5.9375 -5 4 C-5.33 5.32 -5.66 6.64 -6 8 C-6.36458333 3.50347222 -6.36458333 3.50347222 -4.6875 1.1875 C-3 0 -3 0 0 0 Z " fill="#A25C7C" transform="translate(136,121)"/>
<path d="M0 0 C0.33 0 0.66 0 1 0 C1.06058594 1.01320312 1.12117187 2.02640625 1.18359375 3.0703125 C1.26806704 4.42188514 1.35271157 5.77344709 1.4375 7.125 C1.47681641 7.79015625 1.51613281 8.4553125 1.55664062 9.140625 C1.812152 13.15018817 2.26782413 17.04994196 3 21 C2.34 21 1.68 21 1 21 C-0.17426264 18.65147472 -0.11508173 17.26225935 -0.09765625 14.6484375 C-0.09443359 13.79765625 -0.09121094 12.946875 -0.08789062 12.0703125 C-0.07951172 11.18085938 -0.07113281 10.29140625 -0.0625 9.375 C-0.05798828 8.4778125 -0.05347656 7.580625 -0.04882812 6.65625 C-0.03702591 4.43743352 -0.02056155 2.21874982 0 0 Z " fill="#FAE2F3" transform="translate(241,135)"/>
<path d="M0 0 C-0.639375 0.309375 -1.27875 0.61875 -1.9375 0.9375 C-3.93610821 1.8345163 -3.93610821 1.8345163 -5 3 C-7.52596259 3.23653523 -10.03107207 3.42173692 -12.5625 3.5625 C-13.27341797 3.60568359 -13.98433594 3.64886719 -14.71679688 3.69335938 C-16.47761912 3.79971777 -18.2387832 3.90038846 -20 4 C-20 3.67 -20 3.34 -20 3 C-17.79344925 2.49219106 -15.58466395 1.99408635 -13.375 1.5 C-11.53035156 1.08234375 -11.53035156 1.08234375 -9.6484375 0.65625 C-6.32847772 0.05908379 -3.36091549 -0.12409534 0 0 Z " fill="#8F456F" transform="translate(238,91)"/>
<path d="M0 0 C0.33 0 0.66 0 1 0 C1.93402724 5.41735797 2.20808081 8.80451575 0 14 C-1.32 13.67 -2.64 13.34 -4 13 C-3.525625 12.34 -3.05125 11.68 -2.5625 11 C-0.58682146 7.2066972 -0.35972537 4.24475932 0 0 Z " fill="#EBCDE0" transform="translate(339,240)"/>
<path d="M0 0 C-0.33 1.32 -0.66 2.64 -1 4 C-2.1446875 3.9690625 -2.1446875 3.9690625 -3.3125 3.9375 C-6.10185786 3.87057159 -6.10185786 3.87057159 -9 5 C-9 4.01 -9 3.02 -9 2 C-9.66 1.67 -10.32 1.34 -11 1 C-7.32589215 -0.17571451 -3.83070817 -0.07366746 0 0 Z " fill="#A95F84" transform="translate(241,225)"/>
<path d="M0 0 C1.15154588 2.82652171 1.07817396 3.81325108 -0.125 6.6875 C-2 9 -2 9 -4.6875 9.8125 C-5.450625 9.874375 -6.21375 9.93625 -7 10 C-7 7 -7 7 -5 5 C-4.319375 4.690625 -3.63875 4.38125 -2.9375 4.0625 C-0.65434116 3.09596458 -0.65434116 3.09596458 0 0 Z " fill="#F6DFF0" transform="translate(163,217)"/>
<path d="M0 0 C0.99 0.33 1.98 0.66 3 1 C1.56839732 2.00842453 0.12948547 3.00647891 -1.3125 4 C-2.51326172 4.8353125 -2.51326172 4.8353125 -3.73828125 5.6875 C-6 7 -6 7 -9 7 C-9 6.34 -9 5.68 -9 5 C-8.071875 4.54625 -7.14375 4.0925 -6.1875 3.625 C-2.96078611 2.0578367 -2.96078611 2.0578367 0 0 Z " fill="#904467" transform="translate(302,184)"/>
<path d="M0 0 C0 2.64 0 5.28 0 8 C-0.99 8 -1.98 8 -3 8 C-3.99 8.33 -4.98 8.66 -6 9 C-3.4 0 -3.4 0 0 0 Z " fill="#FDEFF9" transform="translate(278,280)"/>
<path d="M0 0 C1.0725 0.2475 2.145 0.495 3.25 0.75 C3.25 2.07 3.25 3.39 3.25 4.75 C2.59 4.09 1.93 3.43 1.25 2.75 C-0.97128555 2.72691403 -0.97128555 2.72691403 -3.375 3.125 C-4.60089844 3.29128906 -4.60089844 3.29128906 -5.8515625 3.4609375 C-6.79128906 3.60402344 -6.79128906 3.60402344 -7.75 3.75 C-5.15187156 0.32047046 -4.43092205 -0.2953948 0 0 Z " fill="#F1CBE0" transform="translate(183.75,231.25)"/>
<path d="M0 0 C2.125 0.375 2.125 0.375 4 1 C3.484375 1.37125 2.96875 1.7425 2.4375 2.125 C0.63680017 4.03173152 0.63680017 4.03173152 1.3125 7.1875 C1.539375 8.115625 1.76625 9.04375 2 10 C0.68 9.34 -0.64 8.68 -2 8 C-2.125 5.125 -2.125 5.125 -2 2 C-1.34 1.34 -0.68 0.68 0 0 Z " fill="#874467" transform="translate(187,173)"/>
<path d="M0 0 C0.99 0.33 1.98 0.66 3 1 C3 4 3 4 2 6 C-0.5625 6.625 -0.5625 6.625 -3 7 C-2.67 5.35 -2.34 3.7 -2 2 C-1.34 2 -0.68 2 0 2 C0 1.34 0 0.68 0 0 Z " fill="#F7E6EF" transform="translate(264,278)"/>
<path d="M0 0 C0.33 0 0.66 0 1 0 C1 2.64 1 5.28 1 8 C-1.4375 7.1875 -1.4375 7.1875 -4 6 C-4.33 5.01 -4.66 4.02 -5 3 C-4.360625 2.690625 -3.72125 2.38125 -3.0625 2.0625 C-1.06389179 1.1654837 -1.06389179 1.1654837 0 0 Z " fill="#F8E9F1" transform="translate(319,277)"/>
<path d="M0 0 C1.65 0.33 3.3 0.66 5 1 C5.33 1.99 5.66 2.98 6 4 C3.36 4 0.72 4 -2 4 C-1.34 2.68 -0.68 1.36 0 0 Z " fill="#FAE4F1" transform="translate(160,279)"/>
<path d="M0 0 C2.375 0.1875 2.375 0.1875 5 1 C6.3125 3.5625 6.3125 3.5625 7 6 C2.25 5.25 2.25 5.25 0 3 C0 2.01 0 1.02 0 0 Z " fill="#944369" transform="translate(225,252)"/>
<path d="M0 0 C-0.33 0.99 -0.66 1.98 -1 3 C-3.31 3 -5.62 3 -8 3 C-8 2.34 -8 1.68 -8 1 C-8.66 0.67 -9.32 0.34 -10 0 C-3.375 -1.125 -3.375 -1.125 0 0 Z " fill="#A8466F" transform="translate(209,227)"/>
<path d="M0 0 C0.66 0 1.32 0 2 0 C2.33 0.66 2.66 1.32 3 2 C5.64 1.67 8.28 1.34 11 1 C10.34 2.32 9.68 3.64 9 5 C3.5 5.36666667 3.5 5.36666667 1.125 3.625 C0 2 0 2 0 0 Z " fill="#C2A8B3" transform="translate(244,286)"/>
<path d="M0 0 C2.16874252 0.50603992 3.99967627 0.99983813 6 2 C5.67 2.66 5.34 3.32 5 4 C3.35 3.67 1.7 3.34 0 3 C0 2.01 0 1.02 0 0 Z M2 4 C3.67542976 4.28604898 5.34385343 4.61781233 7 5 C5.02 5.99 5.02 5.99 3 7 C2.34 6.34 1.68 5.68 1 5 C1.33 4.67 1.66 4.34 2 4 Z " fill="#E0D6DE" transform="translate(174,273)"/>
<path d="M0 0 C0.96661363 3.12180401 0.98988909 5.52083795 0.5625 8.75 C0.40974609 9.94882813 0.40974609 9.94882813 0.25390625 11.171875 C0.12822266 12.07679688 0.12822266 12.07679688 0 13 C-0.66 12.67 -1.32 12.34 -2 12 C-2.05422947 10.5629191 -2.09289723 9.12524538 -2.125 7.6875 C-2.14820313 6.88699219 -2.17140625 6.08648437 -2.1953125 5.26171875 C-2 3 -2 3 0 0 Z " fill="#FAE1F4" transform="translate(313,235)"/>
<path d="M0 0 C0.99 0 1.98 0 3 0 C3 2.97 3 5.94 3 9 C1.35 9.33 -0.3 9.66 -2 10 C-1.34 9.01 -0.68 8.02 0 7 C0.07905064 4.66800612 0.08798769 2.33167378 0 0 Z " fill="#A0567C" transform="translate(214,161)"/>
<path d="M0 0 C3.96 1.98 3.96 1.98 8 4 C7.67 4.66 7.34 5.32 7 6 C4.03 5.505 4.03 5.505 1 5 C1 4.01 1 3.02 1 2 C0.34 1.67 -0.32 1.34 -1 1 C-0.67 0.67 -0.34 0.34 0 0 Z " fill="#F6DDEC" transform="translate(264,254)"/>
<path d="M0 0 C0.99 0.33 1.98 0.66 3 1 C2.5359375 1.9590625 2.5359375 1.9590625 2.0625 2.9375 C0.68064597 6.92049104 0.3463457 10.81650849 0 15 C-0.33 15 -0.66 15 -1 15 C-1.02685412 12.68756208 -1.04632841 10.3750373 -1.0625 8.0625 C-1.07410156 6.77472656 -1.08570313 5.48695313 -1.09765625 4.16015625 C-1 1 -1 1 0 0 Z " fill="#FBE1F3" transform="translate(302,134)"/>
<path d="M0 0 C1.485 0.99 1.485 0.99 3 2 C3.40843923 4.71203652 3.13336867 7.2437142 3 10 C2.01 10.33 1.02 10.66 0 11 C0.185625 10.113125 0.37125 9.22625 0.5625 8.3125 C0.98042484 5.14821189 0.80777742 3.05160358 0 0 Z " fill="#F8DAF1" transform="translate(300,112)"/>
<path d="M0 0 C1.98 0 3.96 0 6 0 C6.33 0.99 6.66 1.98 7 3 C4.36 3 1.72 3 -1 3 C-0.67 2.01 -0.34 1.02 0 0 Z " fill="#FDE5F6" transform="translate(247,280)"/>
<path d="M0 0 C1.98 0 3.96 0 6 0 C6.33 0.99 6.66 1.98 7 3 C4.36 3 1.72 3 -1 3 C-0.67 2.01 -0.34 1.02 0 0 Z " fill="#FDE8F4" transform="translate(301,280)"/>
<path d="M0 0 C3.1875 -0.3125 3.1875 -0.3125 7 0 C9.9375 2.5 9.9375 2.5 12 5 C9 5 9 5 7.125 3.5625 C4.72658573 1.7989601 2.91757352 1.40521854 0 1 C0 0.67 0 0.34 0 0 Z " fill="#A56E89" transform="translate(179,225)"/>
<path d="M0 0 C0.66 0 1.32 0 2 0 C2 1.32 2 2.64 2 4 C1.01 4.495 1.01 4.495 0 5 C0.33 6.98 0.66 8.96 1 11 C0.34 11 -0.32 11 -1 11 C-2.38550197 8.22899606 -2.1877467 6.0665294 -2 3 C-1.34 2.01 -0.68 1.02 0 0 Z " fill="#F7DCF0" transform="translate(242,112)"/>
<path d="M0 0 C2.97851562 0.43945312 2.97851562 0.43945312 5.95703125 0.87890625 C8.2025342 1.13904799 8.2025342 1.13904799 11 0 C10.67 0.99 10.34 1.98 10 3 C7.25 3.75 7.25 3.75 4 4 C1.625 2.0625 1.625 2.0625 0 0 Z " fill="#C1A2AF" transform="translate(156,287)"/>
<path d="M0 0 C1.32 0 2.64 0 4 0 C3.34 2.97 2.68 5.94 2 9 C-1 6 -1 6 -1.25 3.375 C-1 1 -1 1 0 0 Z " fill="#FADEEC" transform="translate(154,278)"/>
<path d="M0 0 C2.97 0.495 2.97 0.495 6 1 C5.01 2.485 5.01 2.485 4 4 C3.67 4.66 3.34 5.32 3 6 C2.01 5.34 1.02 4.68 0 4 C0 2.68 0 1.36 0 0 Z " fill="#F9E5F0" transform="translate(235,276)"/>
<path d="M0 0 C0.33 0.66 0.66 1.32 1 2 C3.02463255 2.65213292 3.02463255 2.65213292 5 3 C4.67 3.99 4.34 4.98 4 6 C3.01 6 2.02 6 1 6 C1 5.01 1 4.02 1 3 C-0.32 2.34 -1.64 1.68 -3 1 C-2.01 0.67 -1.02 0.34 0 0 Z " fill="#9E537D" transform="translate(243,252)"/>
<path d="M0 0 C1.32 0.33 2.64 0.66 4 1 C3.67 6.28 3.34 11.56 3 17 C2.67 17 2.34 17 2 17 C1.93941406 15.94039062 1.87882813 14.88078125 1.81640625 13.7890625 C1.73199873 12.40102779 1.64735083 11.01300768 1.5625 9.625 C1.52318359 8.92632812 1.48386719 8.22765625 1.44335938 7.5078125 C1.25719866 3.62639508 1.25719866 3.62639508 0 0 Z " fill="#B27492" transform="translate(240,133)"/>
<path d="M0 0 C2.625 -0.1875 2.625 -0.1875 5 0 C5.33 0.99 5.66 1.98 6 3 C3.36 3 0.72 3 -2 3 C-1.34 2.01 -0.68 1.02 0 0 Z " fill="#FEE7F5" transform="translate(196,280)"/>
<path d="M0 0 C0.99 0 1.98 0 3 0 C1.60667426 3.36720387 0.0210714 4.9859524 -3 7 C-2.67 5.35 -2.34 3.7 -2 2 C-1.34 2 -0.68 2 0 2 C0 1.34 0 0.68 0 0 Z " fill="#90456F" transform="translate(293,160)"/>
<path d="M0 0 C1.65 0 3.3 0 5 0 C5 0.99 5 1.98 5 3 C3.02 3.66 1.04 4.32 -1 5 C-0.67 3.35 -0.34 1.7 0 0 Z " fill="#F9E2F4" transform="translate(235,133)"/>
<path d="M0 0 C1.98 0.495 1.98 0.495 4 1 C4.33 2.65 4.66 4.3 5 6 C3.02 5.01 1.04 4.02 -1 3 C-0.67 2.01 -0.34 1.02 0 0 Z " fill="#974D79" transform="translate(212,104)"/>
<path d="M0 0 C0.99 0 1.98 0 3 0 C3 1.98 3 3.96 3 6 C1.35 6.33 -0.3 6.66 -2 7 C-2 5 -2 5 0 3 C0 2.01 0 1.02 0 0 Z " fill="#8F3D6D" transform="translate(280,64)"/>
<path d="M0 0 C-1 1 -1 1 -2.84765625 1.09765625 C-4.8984375 1.06510417 -6.94921875 1.03255208 -9 1 C-9.33 0.34 -9.66 -0.32 -10 -1 C-3.375 -2.25 -3.375 -2.25 0 0 Z " fill="#925577" transform="translate(283,259)"/>
<path d="M0 0 C-0.33 0.66 -0.66 1.32 -1 2 C-3.64860427 2.59355614 -6.29197322 2.74209269 -9 3 C-9 2.34 -9 1.68 -9 1 C-5.8035914 -0.06546953 -3.34252724 -0.07427838 0 0 Z " fill="#A64171" transform="translate(329,255)"/>
<path d="M0 0 C1.98 0.495 1.98 0.495 4 1 C3.67 3.64 3.34 6.28 3 9 C1 5.25 1 5.25 1 3 C0.34 2.67 -0.32 2.34 -1 2 C-0.67 1.34 -0.34 0.68 0 0 Z " fill="#A05077" transform="translate(308,237)"/>
<path d="M0 0 C1.36125 0.12375 1.36125 0.12375 2.75 0.25 C2.110625 0.53875 1.47125 0.8275 0.8125 1.125 C-1.40206079 2.07823451 -1.40206079 2.07823451 -2.25 4.25 C-3.9 4.25 -5.55 4.25 -7.25 4.25 C-4.83923194 1.28290085 -3.90322061 0.30024774 0 0 Z " fill="#EECDE0" transform="translate(321.25,230.75)"/>
<path d="M0 0 C0 0.66 0 1.32 0 2 C-2.3125 3.6875 -2.3125 3.6875 -5 5 C-5.99 4.67 -6.98 4.34 -8 4 C-3.375 0 -3.375 0 0 0 Z " fill="#904A6E" transform="translate(232,227)"/>
<path d="M0 0 C2.64 0.33 5.28 0.66 8 1 C5.23776722 3.76223278 2.79293383 3.57856291 -1 4 C-0.67 2.68 -0.34 1.36 0 0 Z " fill="#994270" transform="translate(242,124)"/>
<path d="M0 0 C0.6875 1.8125 0.6875 1.8125 1 4 C-0.4375 5.75 -0.4375 5.75 -2 7 C-2.33 5.35 -2.66 3.7 -3 2 C-2.01 1.34 -1.02 0.68 0 0 Z " fill="#FAE0ED" transform="translate(272,280)"/>
<path d="M0 0 C2.5 2.3125 2.5 2.3125 5 5 C5 5.99 5 6.98 5 8 C2.5 6.25 2.5 6.25 0 4 C0 2.68 0 1.36 0 0 Z " fill="#8E486C" transform="translate(310,246)"/>
<path d="M0 0 C1.65 0.33 3.3 0.66 5 1 C5.33 1.99 5.66 2.98 6 4 C0 4 0 4 -2 3 C-1.34 2.01 -0.68 1.02 0 0 Z " fill="#9D5372" transform="translate(309,230)"/>
<path d="M0 0 C0.33 0.99 0.66 1.98 1 3 C-0.98 3.66 -2.96 4.32 -5 5 C-5.33 4.01 -5.66 3.02 -6 2 C-2.25 0 -2.25 0 0 0 Z " fill="#F7F5F8" transform="translate(273,277)"/>
<path d="M0 0 C0.99 0.33 1.98 0.66 3 1 C2.34 2.32 1.68 3.64 1 5 C-0.32 5 -1.64 5 -3 5 C-2.625 3.0625 -2.625 3.0625 -2 1 C-1.34 0.67 -0.68 0.34 0 0 Z " fill="#A84579" transform="translate(263,243)"/>
<path d="M0 0 C0.33 0 0.66 0 1 0 C1.22036864 3.85645121 0.60355101 6.49223216 -1 10 C-1.33 10 -1.66 10 -2 10 C-2.25 3.375 -2.25 3.375 0 0 Z " fill="#8F496C" transform="translate(307,234)"/>
<path d="M0 0 C0.99 0.33 1.98 0.66 3 1 C3 2.65 3 4.3 3 6 C1.02 5.01 -0.96 4.02 -3 3 C-2.01 2.67 -1.02 2.34 0 2 C0 1.34 0 0.68 0 0 Z " fill="#9C3C6A" transform="translate(208,228)"/>
<path d="M0 0 C0.33 0 0.66 0 1 0 C0.67 2.97 0.34 5.94 0 9 C-0.99 9.33 -1.98 9.66 -3 10 C-2.01 6.7 -1.02 3.4 0 0 Z " fill="#F2D4E8" transform="translate(324,156)"/>
<path d="M0 0 C0.66 0 1.32 0 2 0 C2.66 1.98 3.32 3.96 4 6 C2.68 6.33 1.36 6.66 0 7 C0 4.69 0 2.38 0 0 Z " fill="#F9E8F4" transform="translate(128,125)"/>
<path d="M0 0 C1.98 0.99 3.96 1.98 6 3 C5.67 3.66 5.34 4.32 5 5 C3.02 4.34 1.04 3.68 -1 3 C-0.67 2.01 -0.34 1.02 0 0 Z " fill="#FDEAF8" transform="translate(181,105)"/>
<path d="M0 0 C0.33 0 0.66 0 1 0 C1.042721 1.66611905 1.04063832 3.33382885 1 5 C0 6 0 6 -3.5625 6.0625 C-4.696875 6.041875 -5.83125 6.02125 -7 6 C-3.25 4 -3.25 4 -1 4 C-0.67 2.68 -0.34 1.36 0 0 Z " fill="#DB83A1" transform="translate(161,100)"/>
<path d="M0 0 C0.99 0.33 1.98 0.66 3 1 C2.01 1.495 2.01 1.495 1 2 C1 2.66 1 3.32 1 4 C-1.31 3.67 -3.62 3.34 -6 3 C-4 2 -2 1 0 0 Z " fill="#A4577B" transform="translate(240,88)"/>
<path d="M0 0 C3.125 0.375 3.125 0.375 6 1 C6 1.99 6 2.98 6 4 C3.36 3.34 0.72 2.68 -2 2 C-1.34 1.34 -0.68 0.68 0 0 Z " fill="#F8E3F2" transform="translate(282,81)"/>
</svg>
